<?xml version="1.0" encoding="UTF-8" standalone="no"?>
<svg width="800" height="600" viewBox="0 0 800 600" xmlns="http://www.w3.org/2000/svg">
  <!-- Background -->
  <rect x="0" y="0" width="800" height="600" fill="#f6f8fa" rx="10" ry="10" />
  
  <!-- Title -->
  <text x="400" y="40" font-family="Arial, sans-serif" font-size="24" font-weight="bold" text-anchor="middle" fill="#24292e">SAP-GitHub Integration Architecture</text>
  
  <!-- GitHub Environment Section -->
  <rect x="50" y="80" width="300" height="380" fill="#f1f8ff" stroke="#79b8ff" stroke-width="2" rx="10" ry="10" />
  <text x="200" y="110" font-family="Arial, sans-serif" font-size="18" font-weight="bold" text-anchor="middle" fill="#0366d6">GitHub Environment</text>
  
  <!-- GitHub Repository -->
  <rect x="80" y="130" width="240" height="70" fill="#0366d6" rx="5" ry="5" opacity="0.8" />
  <text x="200" y="165" font-family="Arial, sans-serif" font-size="16" font-weight="bold" text-anchor="middle" fill="white">GitHub Repository</text>
  <text x="200" y="185" font-family="Arial, sans-serif" font-size="12" text-anchor="middle" fill="white">Source Code, Config, Tests</text>
  
  <!-- GitHub Actions -->
  <rect x="80" y="220" width="240" height="70" fill="#2088ff" rx="5" ry="5" opacity="0.8" />
  <text x="200" y="255" font-family="Arial, sans-serif" font-size="16" font-weight="bold" text-anchor="middle" fill="white">GitHub Actions</text>
  <text x="200" y="275" font-family="Arial, sans-serif" font-size="12" text-anchor="middle" fill="white">CI/CD Workflows</text>
  
  <!-- GitHub Packages -->
  <rect x="80" y="310" width="110" height="70" fill="#2ea44f" rx="5" ry="5" opacity="0.8" />
  <text x="135" y="345" font-family="Arial, sans-serif" font-size="14" font-weight="bold" text-anchor="middle" fill="white">GitHub</text>
  <text x="135" y="365" font-family="Arial, sans-serif" font-size="14" font-weight="bold" text-anchor="middle" fill="white">Packages</text>
  
  <!-- GitHub Issues -->
  <rect x="210" y="310" width="110" height="70" fill="#2ea44f" rx="5" ry="5" opacity="0.8" />
  <text x="265" y="345" font-family="Arial, sans-serif" font-size="14" font-weight="bold" text-anchor="middle" fill="white">GitHub</text>
  <text x="265" y="365" font-family="Arial, sans-serif" font-size="14" font-weight="bold" text-anchor="middle" fill="white">Issues</text>
  
  <!-- GitHub Copilot -->
  <rect x="80" y="400" width="240" height="40" fill="#6e5494" rx="5" ry="5" opacity="0.8" />
  <text x="200" y="425" font-family="Arial, sans-serif" font-size="16" font-weight="bold" text-anchor="middle" fill="white">GitHub Copilot</text>
  
  <!-- SAP Environment Section -->
  <rect x="450" y="80" width="300" height="380" fill="#f8f5ff" stroke="#b392f0" stroke-width="2" rx="10" ry="10" />
  <text x="600" y="110" font-family="Arial, sans-serif" font-size="18" font-weight="bold" text-anchor="middle" fill="#6f42c1">SAP Environment</text>
  
  <!-- SAP ABAP System -->
  <rect x="480" y="130" width="240" height="70" fill="#6f42c1" rx="5" ry="5" opacity="0.8" />
  <text x="600" y="165" font-family="Arial, sans-serif" font-size="16" font-weight="bold" text-anchor="middle" fill="white">SAP ABAP System</text>
  <text x="600" y="185" font-family="Arial, sans-serif" font-size="12" text-anchor="middle" fill="white">Business Logic, Custom Code</text>
  
  <!-- SAP BTP -->
  <rect x="480" y="220" width="240" height="70" fill="#8957e5" rx="5" ry="5" opacity="0.8" />
  <text x="600" y="255" font-family="Arial, sans-serif" font-size="16" font-weight="bold" text-anchor="middle" fill="white">SAP BTP</text>
  <text x="600" y="275" font-family="Arial, sans-serif" font-size="12" text-anchor="middle" fill="white">Cloud Integration Platform</text>
  
  <!-- abapGit -->
  <rect x="480" y="310" width="110" height="70" fill="#0070f2" rx="5" ry="5" opacity="0.8" />
  <text x="535" y="345" font-family="Arial, sans-serif" font-size="14" font-weight="bold" text-anchor="middle" fill="white">abapGit</text>
  <text x="535" y="365" font-family="Arial, sans-serif" font-size="12" text-anchor="middle" fill="white">Git Client</text>
  
  <!-- SAP Transport -->
  <rect x="610" y="310" width="110" height="70" fill="#0070f2" rx="5" ry="5" opacity="0.8" />
  <text x="665" y="345" font-family="Arial, sans-serif" font-size="14" font-weight="bold" text-anchor="middle" fill="white">Transport</text>
  <text x="665" y="365" font-family="Arial, sans-serif" font-size="12" text-anchor="middle" fill="white">Management</text>
  
  <!-- SAP Fiori -->
  <rect x="480" y="400" width="240" height="40" fill="#9c36b5" rx="5" ry="5" opacity="0.8" />
  <text x="600" y="425" font-family="Arial, sans-serif" font-size="16" font-weight="bold" text-anchor="middle" fill="white">SAP Fiori / UI5</text>
  
  <!-- Integration Components Section -->
  <rect x="200" y="480" width="400" height="100" fill="#fffcf7" stroke="#ffab70" stroke-width="2" rx="10" ry="10" />
  <text x="400" y="510" font-family="Arial, sans-serif" font-size="18" font-weight="bold" text-anchor="middle" fill="#f66a0a">Integration Components</text>
  
  <!-- API Gateway -->
  <rect x="220" y="530" width="110" height="40" fill="#f66a0a" rx="5" ry="5" opacity="0.8" />
  <text x="275" y="555" font-family="Arial, sans-serif" font-size="14" font-weight="bold" text-anchor="middle" fill="white">API Gateway</text>
  
  <!-- OAuth -->
  <rect x="345" y="530" width="110" height="40" fill="#f66a0a" rx="5" ry="5" opacity="0.8" />
  <text x="400" y="555" font-family="Arial, sans-serif" font-size="14" font-weight="bold" text-anchor="middle" fill="white">OAuth 2.0</text>
  
  <!-- Webhooks -->
  <rect x="470" y="530" width="110" height="40" fill="#f66a0a" rx="5" ry="5" opacity="0.8" />
  <text x="525" y="555" font-family="Arial, sans-serif" font-size="14" font-weight="bold" text-anchor="middle" fill="white">Webhooks</text>
  
  <!-- Integration Arrows -->
  <!-- GitHub Actions to SAP BTP -->
  <line x1="320" y1="255" x2="480" y2="255" stroke="#24292e" stroke-width="2" marker-end="url(#arrow)" />
  <text x="400" y="245" font-family="Arial, sans-serif" font-size="10" text-anchor="middle" fill="#24292e">Deploy</text>
  
  <!-- GitHub Repository to abapGit -->
  <line x1="320" y1="165" x2="480" y2="345" stroke="#24292e" stroke-width="2" marker-end="url(#arrow)" />
  <text x="400" y="240" font-family="Arial, sans-serif" font-size="10" text-anchor="middle" fill="#24292e">Clone/Pull</text>
  
  <!-- abapGit to GitHub Repository -->
  <line x1="480" y1="335" x2="320" y2="155" stroke="#24292e" stroke-width="2" marker-end="url(#arrow)" />
  <text x="380" y="220" font-family="Arial, sans-serif" font-size="10" text-anchor="middle" fill="#24292e">Push</text>
  
  <!-- SAP Transport to GitHub Actions -->
  <line x1="610" y1="345" x2="320" y2="255" stroke="#24292e" stroke-width="2" marker-end="url(#arrow)" />
  <text x="470" y="290" font-family="Arial, sans-serif" font-size="10" text-anchor="middle" fill="#24292e">Trigger CD</text>
  
  <!-- GitHub Issues to SAP BTP -->
  <line x1="265" y1="380" x2="480" y2="255" stroke="#24292e" stroke-width="2" marker-end="url(#arrow)" />
  <text x="370" y="330" font-family="Arial, sans-serif" font-size="10" text-anchor="middle" fill="#24292e">Integration</text>
  
  <!-- SAP ABAP to Integration Components -->
  <line x1="600" y1="200" x2="400" y2="480" stroke="#24292e" stroke-width="2" marker-end="url(#arrow)" />
  
  <!-- GitHub Repository to Integration Components -->
  <line x1="200" y1="200" x2="400" y2="480" stroke="#24292e" stroke-width="2" marker-end="url(#arrow)" />
  
  <!-- Arrow Marker definition -->
  <defs>
    <marker id="arrow" markerWidth="10" markerHeight="10" refX="9" refY="3" orient="auto" markerUnits="strokeWidth">
      <path d="M0,0 L0,6 L9,3 z" fill="#24292e" />
    </marker>
  </defs>
  
  <!-- Legend -->
  <rect x="620" y="530" width="150" height="60" fill="white" rx="5" ry="5" stroke="#d1d5da" stroke-width="1" />
  <text x="630" y="545" font-family="Arial, sans-serif" font-size="12" fill="#24292e">Legend:</text>
  
  <rect x="630" y="555" width="12" height="12" fill="#0366d6" rx="2" ry="2" />
  <text x="650" y="565" font-family="Arial, sans-serif" font-size="10" fill="#24292e">GitHub Components</text>
  
  <rect x="630" y="575" width="12" height="12" fill="#6f42c1" rx="2" ry="2" />
  <text x="650" y="585" font-family="Arial, sans-serif" font-size="10" fill="#24292e">SAP Components</text>
</svg> 