<?xml version="1.0" encoding="UTF-8" standalone="no"?>
<svg xmlns="http://www.w3.org/2000/svg" xmlns:xlink="http://www.w3.org/1999/xlink" width="900" height="600" viewBox="0 0 900 600" role="img" aria-labelledby="title desc">
  <title id="title">CHARM Integration Architecture</title>
  <desc id="desc">Architectural diagram showing the integration between SAP CHARM and GitHub Enterprise through an API Management layer</desc>
  
  <!-- Styles -->
  <defs>
    <!-- Arrow Markers -->
    <marker id="arrowhead" markerWidth="10" markerHeight="7" refX="9" refY="3.5" orient="auto">
      <polygon points="0 0, 10 3.5, 0 7" fill="#757575" />
    </marker>
    
    <!-- Gradient Backgrounds -->
    <linearGradient id="sapGradient" x1="0%" y1="0%" x2="100%" y2="100%">
      <stop offset="0%" style="stop-color:#1565C0;stop-opacity:1" />
      <stop offset="100%" style="stop-color:#0D47A1;stop-opacity:1" />
    </linearGradient>
    
    <linearGradient id="githubGradient" x1="0%" y1="0%" x2="100%" y2="100%">
      <stop offset="0%" style="stop-color:#6F42C1;stop-opacity:1" />
      <stop offset="100%" style="stop-color:#5E35B1;stop-opacity:1" />
    </linearGradient>
    
    <linearGradient id="apiGradient" x1="0%" y1="0%" x2="100%" y2="100%">
      <stop offset="0%" style="stop-color:#00897B;stop-opacity:1" />
      <stop offset="100%" style="stop-color:#00796B;stop-opacity:1" />
    </linearGradient>
    
    <linearGradient id="integrationGradient" x1="0%" y1="0%" x2="100%" y2="100%">
      <stop offset="0%" style="stop-color:#FFA000;stop-opacity:1" />
      <stop offset="100%" style="stop-color:#FF8F00;stop-opacity:1" />
    </linearGradient>
    
    <linearGradient id="securityGradient" x1="0%" y1="0%" x2="100%" y2="100%">
      <stop offset="0%" style="stop-color:#F44336;stop-opacity:1" />
      <stop offset="100%" style="stop-color:#D32F2F;stop-opacity:1" />
    </linearGradient>
    
    <filter id="dropShadow" x="-20%" y="-20%" width="140%" height="140%">
      <feGaussianBlur in="SourceAlpha" stdDeviation="3" />
      <feOffset dx="2" dy="2" result="offsetblur" />
      <feComponentTransfer>
        <feFuncA type="linear" slope="0.2" />
      </feComponentTransfer>
      <feMerge>
        <feMergeNode />
        <feMergeNode in="SourceGraphic" />
      </feMerge>
    </filter>
  </defs>
  
  <!-- Background -->
  <rect width="900" height="600" fill="#f8f9fa" />
  
  <!-- Diagram Title -->
  <text x="450" y="40" font-family="Arial, sans-serif" font-size="24" text-anchor="middle" fill="#212121">CHARM Integration Architecture</text>
  <text x="450" y="70" font-family="Arial, sans-serif" font-size="16" text-anchor="middle" fill="#757575">SAP Solution Manager with Change Request Management (CHARM) to GitHub Enterprise</text>
  
  <!-- SAP Systems Group -->
  <g transform="translate(150, 160)">
    <!-- Group Container -->
    <rect x="-120" y="-40" width="240" height="320" rx="8" ry="8" fill="#E3F2FD" stroke="#1565C0" stroke-width="1" />
    <text x="0" y="-20" font-family="Arial, sans-serif" font-size="14" text-anchor="middle" fill="#1565C0">SAP Landscape</text>
    
    <!-- Solution Manager -->
    <rect x="-90" y="0" width="180" height="80" rx="8" ry="8" fill="url(#sapGradient)" filter="url(#dropShadow)" />
    <text x="0" y="40" font-family="Arial, sans-serif" font-size="14" text-anchor="middle" fill="#FFFFFF">Solution Manager</text>
    <text x="0" y="60" font-family="Arial, sans-serif" font-size="12" text-anchor="middle" fill="#FFFFFF">CHARM</text>
    
    <!-- Development System -->
    <rect x="-90" y="100" width="180" height="70" rx="8" ry="8" fill="url(#sapGradient)" filter="url(#dropShadow)" />
    <text x="0" y="135" font-family="Arial, sans-serif" font-size="14" text-anchor="middle" fill="#FFFFFF">Development System</text>
    
    <!-- QAS System -->
    <rect x="-90" y="190" width="180" height="70" rx="8" ry="8" fill="url(#sapGradient)" filter="url(#dropShadow)" />
    <text x="0" y="225" font-family="Arial, sans-serif" font-size="14" text-anchor="middle" fill="#FFFFFF">Quality System</text>
  </g>
  
  <!-- API Management Layer -->
  <g transform="translate(450, 160)">
    <!-- Group Container -->
    <rect x="-170" y="-40" width="340" height="320" rx="8" ry="8" fill="#E0F2F1" stroke="#00796B" stroke-width="1" />
    <text x="0" y="-20" font-family="Arial, sans-serif" font-size="14" text-anchor="middle" fill="#00796B">API Management Layer</text>
    
    <!-- API Gateway -->
    <rect x="-140" y="0" width="280" height="80" rx="8" ry="8" fill="url(#apiGradient)" filter="url(#dropShadow)" />
    <text x="0" y="40" font-family="Arial, sans-serif" font-size="14" text-anchor="middle" fill="#FFFFFF">API Management Gateway</text>
    <text x="0" y="60" font-family="Arial, sans-serif" font-size="12" text-anchor="middle" fill="#FFFFFF">OAuth 2.0, Certificate Auth, Rate Limiting</text>
    
    <!-- Integration Services -->
    <g transform="translate(0, 135)">
      <rect x="-140" y="-35" width="280" height="70" rx="8" ry="8" fill="url(#integrationGradient)" filter="url(#dropShadow)" />
      <text x="0" y="0" font-family="Arial, sans-serif" font-size="14" text-anchor="middle" fill="#FFFFFF">CHARM Integration Service</text>
      <text x="0" y="20" font-family="Arial, sans-serif" font-size="12" text-anchor="middle" fill="#FFFFFF">Bidirectional Synchronization</text>
    </g>
    
    <!-- Security Services -->
    <g transform="translate(0, 225)">
      <rect x="-140" y="-35" width="280" height="70" rx="8" ry="8" fill="url(#securityGradient)" filter="url(#dropShadow)" />
      <text x="0" y="0" font-family="Arial, sans-serif" font-size="14" text-anchor="middle" fill="#FFFFFF">Security Services</text>
      <text x="0" y="20" font-family="Arial, sans-serif" font-size="12" text-anchor="middle" fill="#FFFFFF">Transport Content Analysis, Auth Validation</text>
    </g>
  </g>
  
  <!-- GitHub Enterprise -->
  <g transform="translate(750, 160)">
    <!-- Group Container -->
    <rect x="-120" y="-40" width="240" height="320" rx="8" ry="8" fill="#F3E5F5" stroke="#6F42C1" stroke-width="1" />
    <text x="0" y="-20" font-family="Arial, sans-serif" font-size="14" text-anchor="middle" fill="#6F42C1">GitHub Enterprise</text>
    
    <!-- GitHub Repos -->
    <rect x="-90" y="0" width="180" height="80" rx="8" ry="8" fill="url(#githubGradient)" filter="url(#dropShadow)" />
    <text x="0" y="40" font-family="Arial, sans-serif" font-size="14" text-anchor="middle" fill="#FFFFFF">GitHub Repositories</text>
    <text x="0" y="60" font-family="Arial, sans-serif" font-size="12" text-anchor="middle" fill="#FFFFFF">SAP Code Projects</text>
    
    <!-- GitHub Actions -->
    <rect x="-90" y="100" width="180" height="70" rx="8" ry="8" fill="url(#githubGradient)" filter="url(#dropShadow)" />
    <text x="0" y="135" font-family="Arial, sans-serif" font-size="14" text-anchor="middle" fill="#FFFFFF">GitHub Actions</text>
    <text x="0" y="155" font-family="Arial, sans-serif" font-size="12" text-anchor="middle" fill="#FFFFFF">Automated Workflows</text>
    
    <!-- Security Scanning -->
    <rect x="-90" y="190" width="180" height="70" rx="8" ry="8" fill="url(#githubGradient)" filter="url(#dropShadow)" />
    <text x="0" y="225" font-family="Arial, sans-serif" font-size="14" text-anchor="middle" fill="#FFFFFF">Advanced Security</text>
    <text x="0" y="245" font-family="Arial, sans-serif" font-size="12" text-anchor="middle" fill="#FFFFFF">Code Scanning, SAST</text>
  </g>
  
  <!-- Connection Lines -->
  <!-- SolMan to API Gateway -->
  <path d="M 240 160 L 310 160" stroke="#757575" stroke-width="2" marker-end="url(#arrowhead)" fill="none" />
  
  <!-- API Gateway to GitHub Repos -->
  <path d="M 590 160 L 660 160" stroke="#757575" stroke-width="2" marker-end="url(#arrowhead)" fill="none" />
  
  <!-- Dev System to Integration Service -->
  <path d="M 240 260 L 310 260 L 310 295" stroke="#757575" stroke-width="2" marker-end="url(#arrowhead)" fill="none" />
  
  <!-- Integration Service to GitHub Actions -->
  <path d="M 590 295 L 620 295 L 620 260 L 660 260" stroke="#757575" stroke-width="2" marker-end="url(#arrowhead)" fill="none" />
  
  <!-- GitHub Actions to Security Services -->
  <path d="M 660 350 L 620 350 L 620 385" stroke="#757575" stroke-width="2" marker-end="url(#arrowhead)" fill="none" />
  
  <!-- Security Services to QAS System -->
  <path d="M 310 385 L 280 385 L 280 350 L 240 350" stroke="#757575" stroke-width="2" marker-end="url(#arrowhead)" fill="none" />
  
  <!-- Bidirectional Arrows -->
  <!-- SolMan <-> GitHub through API Management -->
  <path d="M 240 140 C 300 110, 600 110, 660 140" stroke="#757575" stroke-width="2" stroke-dasharray="5,5" marker-end="url(#arrowhead)" fill="none" />
  <path d="M 660 180 C 600 210, 300 210, 240 180" stroke="#757575" stroke-width="2" stroke-dasharray="5,5" marker-end="url(#arrowhead)" fill="none" />
  <text x="450" y="120" font-family="Arial, sans-serif" font-size="12" fill="#757575">Transport Status Synchronization</text>
  
  <!-- Data Flows and API Calls -->
  <!-- Code Flow -->
  <path d="M 240 240 C 300 270, 600 270, 660 240" stroke="#757575" stroke-width="2" stroke-dasharray="5,5" marker-end="url(#arrowhead)" fill="none" />
  <path d="M 660 280 C 600 310, 300 310, 240 280" stroke="#757575" stroke-width="2" stroke-dasharray="5,5" marker-end="url(#arrowhead)" fill="none" />
  <text x="450" y="300" font-family="Arial, sans-serif" font-size="12" fill="#757575">Code Synchronization</text>
  
  <!-- Security Flow -->
  <path d="M 240 330 C 300 360, 600 360, 660 330" stroke="#757575" stroke-width="2" stroke-dasharray="5,5" marker-end="url(#arrowhead)" fill="none" />
  <path d="M 660 370 C 600 400, 300 400, 240 370" stroke="#757575" stroke-width="2" stroke-dasharray="5,5" marker-end="url(#arrowhead)" fill="none" />
  <text x="450" y="390" font-family="Arial, sans-serif" font-size="12" fill="#757575">Security Validation</text>
  
  <!-- API Policy Components -->
  <g transform="translate(450, 520)">
    <rect x="-330" y="-30" width="660" height="60" rx="8" ry="8" fill="#E8F5E9" stroke="#388E3C" stroke-width="1" />
    <text x="0" y="-10" font-family="Arial, sans-serif" font-size="14" text-anchor="middle" fill="#388E3C">API Policies</text>
    
    <rect x="-320" y="0" width="100" height="40" rx="4" ry="4" fill="#4CAF50" filter="url(#dropShadow)" />
    <text x="-270" y="25" font-family="Arial, sans-serif" font-size="12" text-anchor="middle" fill="#FFFFFF">JWT Validation</text>
    
    <rect x="-200" y="0" width="100" height="40" rx="4" ry="4" fill="#4CAF50" filter="url(#dropShadow)" />
    <text x="-150" y="25" font-family="Arial, sans-serif" font-size="12" text-anchor="middle" fill="#FFFFFF">XML/JSON Transform</text>
    
    <rect x="-80" y="0" width="100" height="40" rx="4" ry="4" fill="#4CAF50" filter="url(#dropShadow)" />
    <text x="-30" y="25" font-family="Arial, sans-serif" font-size="12" text-anchor="middle" fill="#FFFFFF">Request Validation</text>
    
    <rect x="40" y="0" width="100" height="40" rx="4" ry="4" fill="#4CAF50" filter="url(#dropShadow)" />
    <text x="90" y="25" font-family="Arial, sans-serif" font-size="12" text-anchor="middle" fill="#FFFFFF">Response Caching</text>
    
    <rect x="160" y="0" width="100" height="40" rx="4" ry="4" fill="#4CAF50" filter="url(#dropShadow)" />
    <text x="210" y="25" font-family="Arial, sans-serif" font-size="12" text-anchor="middle" fill="#FFFFFF">Error Handling</text>
  </g>
  
  <!-- Transport Flow -->
  <path d="M 150 400 Q 250 450, 450 450 Q 650 450, 750 400" stroke="#1565C0" stroke-width="2" marker-end="url(#arrowhead)" fill="none" />
  <text x="450" y="470" font-family="Arial, sans-serif" font-size="14" text-anchor="middle" fill="#1565C0">Transport Management Flow</text>
  
  <!-- Legend -->
  <g transform="translate(820, 40)">
    <text x="0" y="0" font-family="Arial, sans-serif" font-size="12" fill="#212121">Legend:</text>
    
    <rect x="0" y="10" width="15" height="15" fill="url(#sapGradient)" />
    <text x="20" y="22" font-family="Arial, sans-serif" font-size="10" fill="#212121">SAP Systems</text>
    
    <rect x="0" y="30" width="15" height="15" fill="url(#apiGradient)" />
    <text x="20" y="42" font-family="Arial, sans-serif" font-size="10" fill="#212121">API Management</text>
    
    <rect x="0" y="50" width="15" height="15" fill="url(#githubGradient)" />
    <text x="20" y="62" font-family="Arial, sans-serif" font-size="10" fill="#212121">GitHub</text>
    
    <rect x="0" y="70" width="15" height="15" fill="url(#integrationGradient)" />
    <text x="20" y="82" font-family="Arial, sans-serif" font-size="10" fill="#212121">Integration Services</text>
    
    <rect x="0" y="90" width="15" height="15" fill="url(#securityGradient)" />
    <text x="20" y="102" font-family="Arial, sans-serif" font-size="10" fill="#212121">Security Services</text>
  </g>
</svg>