<?xml version="1.0" encoding="UTF-8"?>
<svg width="800" height="650" xmlns="http://www.w3.org/2000/svg">
  <!-- Background and Title -->
  <rect width="800" height="650" fill="#f8f9fa" />
  <text x="400" y="40" font-family="Arial" font-size="24" text-anchor="middle" font-weight="bold">SAP HANA - GitHub Integration Architecture</text>
  
  <!-- SAP HANA Platform (Blue) -->
  <rect x="50" y="100" width="280" height="420" rx="10" ry="10" fill="#4285F4" fill-opacity="0.1" stroke="#4285F4" stroke-width="2" />
  <text x="190" y="130" font-family="Arial" font-size="18" text-anchor="middle" font-weight="bold">SAP HANA Platform</text>
  
  <!-- HANA Components -->
  <rect x="70" y="150" width="240" height="80" rx="5" ry="5" fill="#4285F4" fill-opacity="0.7" stroke="#4285F4" stroke-width="1" />
  <text x="190" y="175" font-family="Arial" font-size="14" text-anchor="middle" fill="white">HANA Database</text>
  <rect x="90" y="190" width="200" height="25" rx="3" ry="3" fill="white" fill-opacity="0.7" />
  <text x="190" y="207" font-family="Arial" font-size="12" text-anchor="middle">Tables, Views, Stored Procedures</text>
  
  <!-- XS Classic -->
  <rect x="70" y="250" width="110" height="110" rx="5" ry="5" fill="#4285F4" fill-opacity="0.7" stroke="#4285F4" stroke-width="1" />
  <text x="125" y="275" font-family="Arial" font-size="14" text-anchor="middle" fill="white">XS Classic</text>
  <rect x="80" y="290" width="90" height="25" rx="3" ry="3" fill="white" fill-opacity="0.7" />
  <text x="125" y="307" font-family="Arial" font-size="11" text-anchor="middle">JavaScript</text>
  <rect x="80" y="320" width="90" height="25" rx="3" ry="3" fill="white" fill-opacity="0.7" />
  <text x="125" y="337" font-family="Arial" font-size="11" text-anchor="middle">XSJS</text>
  
  <!-- XS Advanced -->
  <rect x="200" y="250" width="110" height="150" rx="5" ry="5" fill="#4285F4" fill-opacity="0.7" stroke="#4285F4" stroke-width="1" />
  <text x="255" y="275" font-family="Arial" font-size="14" text-anchor="middle" fill="white">XS Advanced</text>
  <rect x="210" y="290" width="90" height="25" rx="3" ry="3" fill="white" fill-opacity="0.7" />
  <text x="255" y="307" font-family="Arial" font-size="11" text-anchor="middle">Node.js</text>
  <rect x="210" y="320" width="90" height="25" rx="3" ry="3" fill="white" fill-opacity="0.7" />
  <text x="255" y="337" font-family="Arial" font-size="11" text-anchor="middle">Java</text>
  <rect x="210" y="350" width="90" height="25" rx="3" ry="3" fill="white" fill-opacity="0.7" />
  <text x="255" y="367" font-family="Arial" font-size="11" text-anchor="middle">Python</text>
  
  <!-- HDI Containers -->
  <rect x="70" y="420" width="240" height="80" rx="5" ry="5" fill="#4285F4" fill-opacity="0.7" stroke="#4285F4" stroke-width="1" />
  <text x="190" y="445" font-family="Arial" font-size="14" text-anchor="middle" fill="white">HDI Containers</text>
  <rect x="90" y="460" width="200" height="25" rx="3" ry="3" fill="white" fill-opacity="0.7" />
  <text x="190" y="477" font-family="Arial" font-size="12" text-anchor="middle">Database Modules &amp; Artifacts</text>
  
  <!-- GitHub (Green) -->
  <rect x="470" y="100" width="280" height="420" rx="10" ry="10" fill="#34A853" fill-opacity="0.1" stroke="#34A853" stroke-width="2" />
  <text x="610" y="130" font-family="Arial" font-size="18" text-anchor="middle" font-weight="bold">GitHub</text>
  
  <!-- GitHub Repositories -->
  <rect x="490" y="150" width="240" height="130" rx="5" ry="5" fill="#34A853" fill-opacity="0.7" stroke="#34A853" stroke-width="1" />
  <text x="610" y="175" font-family="Arial" font-size="14" text-anchor="middle" fill="white">Repositories</text>
  
  <rect x="510" y="190" width="200" height="25" rx="3" ry="3" fill="white" fill-opacity="0.7" />
  <text x="610" y="207" font-family="Arial" font-size="12" text-anchor="middle">HANA Database Artifacts (.hdbtable)</text>
  
  <rect x="510" y="220" width="200" height="25" rx="3" ry="3" fill="white" fill-opacity="0.7" />
  <text x="610" y="237" font-family="Arial" font-size="12" text-anchor="middle">XS Application Code</text>
  
  <rect x="510" y="250" width="200" height="25" rx="3" ry="3" fill="white" fill-opacity="0.7" />
  <text x="610" y="267" font-family="Arial" font-size="12" text-anchor="middle">CAP/MTA Projects</text>
  
  <!-- GitHub Actions (CI/CD) -->
  <rect x="490" y="300" width="240" height="100" rx="5" ry="5" fill="#34A853" fill-opacity="0.7" stroke="#34A853" stroke-width="1" />
  <text x="610" y="325" font-family="Arial" font-size="14" text-anchor="middle" fill="white">GitHub Actions (CI/CD)</text>
  
  <rect x="510" y="340" width="200" height="25" rx="3" ry="3" fill="white" fill-opacity="0.7" />
  <text x="610" y="357" font-family="Arial" font-size="12" text-anchor="middle">Validation &amp; Testing</text>
  
  <rect x="510" y="370" width="200" height="25" rx="3" ry="3" fill="white" fill-opacity="0.7" />
  <text x="610" y="387" font-family="Arial" font-size="12" text-anchor="middle">Automated Deployment</text>
  
  <!-- GitHub Security -->
  <rect x="490" y="420" width="240" height="80" rx="5" ry="5" fill="#34A853" fill-opacity="0.7" stroke="#34A853" stroke-width="1" />
  <text x="610" y="445" font-family="Arial" font-size="14" text-anchor="middle" fill="white">Security &amp; Governance</text>
  
  <rect x="510" y="460" width="200" height="25" rx="3" ry="3" fill="white" fill-opacity="0.7" />
  <text x="610" y="477" font-family="Arial" font-size="12" text-anchor="middle">Code Scanning &amp; Secret Detection</text>
  
  <!-- Integration Layer (Purple) -->
  <rect x="360" y="200" width="80" height="220" rx="10" ry="10" fill="#A142F4" fill-opacity="0.2" stroke="#A142F4" stroke-width="2" />
  <text x="400" y="220" font-family="Arial" font-size="12" text-anchor="middle" font-weight="bold">Integration</text>
  
  <rect x="370" y="240" width="60" height="60" rx="5" ry="5" fill="#A142F4" fill-opacity="0.7" stroke="#A142F4" stroke-width="1" />
  <text x="400" y="265" font-family="Arial" font-size="10" text-anchor="middle" fill="white">HANA</text>
  <text x="400" y="280" font-family="Arial" font-size="10" text-anchor="middle" fill="white">Deployment</text>
  <text x="400" y="295" font-family="Arial" font-size="10" text-anchor="middle" fill="white">Tools</text>
  
  <rect x="370" y="320" width="60" height="60" rx="5" ry="5" fill="#A142F4" fill-opacity="0.7" stroke="#A142F4" stroke-width="1" />
  <text x="400" y="345" font-family="Arial" font-size="10" text-anchor="middle" fill="white">CI/CD</text>
  <text x="400" y="360" font-family="Arial" font-size="10" text-anchor="middle" fill="white">Pipeline</text>
  <text x="400" y="375" font-family="Arial" font-size="10" text-anchor="middle" fill="white">Agents</text>
  
  <!-- Connection Arrows -->
  <!-- GitHub to HANA Deployment -->
  <line x1="490" y1="270" x2="430" y2="270" stroke="#666" stroke-width="2" />
  <polygon points="430,270 435,265 435,275" fill="#666" />
  
  <!-- HANA Deployment to SAP HANA -->
  <line x1="370" y1="270" x2="310" y2="270" stroke="#666" stroke-width="2" />
  <polygon points="310,270 315,265 315,275" fill="#666" />
  
  <!-- GitHub Actions to CI/CD Pipeline -->
  <line x1="490" y1="350" x2="430" y2="350" stroke="#666" stroke-width="2" />
  <polygon points="430,350 435,345 435,355" fill="#666" />
  
  <!-- CI/CD Pipeline to SAP HANA (HDI) -->
  <line x1="370" y1="350" x2="310" y2="450" stroke="#666" stroke-width="2" />
  <polygon points="310,450 312,444 318,447" fill="#666" />
  
  <!-- XS Advanced to GitHub (Development Flow) -->
  <line x1="310" y1="320" x2="370" y2="320" stroke="#666" stroke-width="2" stroke-dasharray="5,5" />
  <polygon points="370,320 365,315 365,325" fill="#666" />
  <text x="340" y="315" font-family="Arial" font-size="10" text-anchor="middle">dev</text>
  
  <!-- Deployment Environments -->
  <rect x="50" y="540" width="700" height="80" rx="10" ry="10" fill="#FBBC05" fill-opacity="0.1" stroke="#FBBC05" stroke-width="2" />
  <text x="400" y="560" font-family="Arial" font-size="18" text-anchor="middle" font-weight="bold">Deployment Environments</text>
  
  <rect x="70" y="575" width="130" height="35" rx="5" ry="5" fill="#FBBC05" fill-opacity="0.7" stroke="#FBBC05" stroke-width="1" />
  <text x="135" y="597" font-family="Arial" font-size="14" text-anchor="middle" fill="white">Development</text>
  
  <rect x="220" y="575" width="130" height="35" rx="5" ry="5" fill="#FBBC05" fill-opacity="0.7" stroke="#FBBC05" stroke-width="1" />
  <text x="285" y="597" font-family="Arial" font-size="14" text-anchor="middle" fill="white">Test</text>
  
  <rect x="370" y="575" width="130" height="35" rx="5" ry="5" fill="#FBBC05" fill-opacity="0.7" stroke="#FBBC05" stroke-width="1" />
  <text x="435" y="597" font-family="Arial" font-size="14" text-anchor="middle" fill="white">QA</text>
  
  <rect x="520" y="575" width="130" height="35" rx="5" ry="5" fill="#FBBC05" fill-opacity="0.7" stroke="#FBBC05" stroke-width="1" />
  <text x="585" y="597" font-family="Arial" font-size="14" text-anchor="middle" fill="white">Production</text>
  
  <!-- Environment Arrows -->
  <line x1="200" y1="593" x2="220" y2="593" stroke="#666" stroke-width="2" />
  <polygon points="220,593 215,588 215,598" fill="#666" />
  
  <line x1="350" y1="593" x2="370" y2="593" stroke="#666" stroke-width="2" />
  <polygon points="370,593 365,588 365,598" fill="#666" />
  
  <line x1="500" y1="593" x2="520" y2="593" stroke="#666" stroke-width="2" />
  <polygon points="520,593 515,588 515,598" fill="#666" />
  
  <!-- Legend -->
  <rect x="50" y="630" width="700" height="20" rx="5" ry="5" fill="white" stroke="#ccc" stroke-width="1" />
  
  <rect x="60" y="632" width="15" height="15" fill="#4285F4" fill-opacity="0.7" />
  <text x="82" y="643" font-family="Arial" font-size="10">SAP HANA</text>
  
  <rect x="152" y="632" width="15" height="15" fill="#34A853" fill-opacity="0.7" />
  <text x="174" y="643" font-family="Arial" font-size="10">GitHub</text>
  
  <rect x="224" y="632" width="15" height="15" fill="#A142F4" fill-opacity="0.7" />
  <text x="246" y="643" font-family="Arial" font-size="10">Integration</text>
  
  <rect x="306" y="632" width="15" height="15" fill="#FBBC05" fill-opacity="0.7" />
  <text x="328" y="643" font-family="Arial" font-size="10">Environments</text>
  
  <line x1="388" y1="639" x2="408" y2="639" stroke="#666" stroke-width="2" />
  <polygon points="408,639 403,634 403,644" fill="#666" />
  <text x="428" y="643" font-family="Arial" font-size="10">Data Flow</text>
  
  <line x1="488" y1="639" x2="508" y2="639" stroke="#666" stroke-width="2" stroke-dasharray="5,5" />
  <polygon points="508,639 503,634 503,644" fill="#666" />
  <text x="528" y="643" font-family="Arial" font-size="10">Development Flow</text>
</svg> 