<?xml version="1.0" encoding="UTF-8" standalone="no"?>
<svg xmlns="http://www.w3.org/2000/svg" xmlns:xlink="http://www.w3.org/1999/xlink" width="800" height="600" viewBox="0 0 800 600" role="img" aria-labelledby="title desc">
  <title id="title">DevSecOps Detailed Workflow</title>
  <desc id="desc">Detailed DevSecOps workflow diagram for SAP-GitHub integration</desc>
  
  <!-- Styles -->
  <defs>
    <!-- Arrow Markers -->
    <marker id="arrowhead" markerWidth="10" markerHeight="7" refX="9" refY="3.5" orient="auto">
      <polygon points="0 0, 10 3.5, 0 7" fill="#757575" />
    </marker>
    
    <!-- Gradient Backgrounds -->
    <linearGradient id="devGradient" x1="0%" y1="0%" x2="100%" y2="100%">
      <stop offset="0%" style="stop-color:#1565C0;stop-opacity:1" />
      <stop offset="100%" style="stop-color:#0D47A1;stop-opacity:1" />
    </linearGradient>
    
    <linearGradient id="secGradient" x1="0%" y1="0%" x2="100%" y2="100%">
      <stop offset="0%" style="stop-color:#E53935;stop-opacity:1" />
      <stop offset="100%" style="stop-color:#C62828;stop-opacity:1" />
    </linearGradient>
    
    <linearGradient id="opsGradient" x1="0%" y1="0%" x2="100%" y2="100%">
      <stop offset="0%" style="stop-color:#388E3C;stop-opacity:1" />
      <stop offset="100%" style="stop-color:#2E7D32;stop-opacity:1" />
    </linearGradient>
    
    <linearGradient id="monitorGradient" x1="0%" y1="0%" x2="100%" y2="100%">
      <stop offset="0%" style="stop-color:#F57F17;stop-opacity:1" />
      <stop offset="100%" style="stop-color:#E65100;stop-opacity:1" />
    </linearGradient>
    
    <linearGradient id="governanceGradient" x1="0%" y1="0%" x2="100%" y2="100%">
      <stop offset="0%" style="stop-color:#8E24AA;stop-opacity:1" />
      <stop offset="100%" style="stop-color:#6A1B9A;stop-opacity:1" />
    </linearGradient>
    
    <filter id="dropShadow" x="-20%" y="-20%" width="140%" height="140%">
      <feGaussianBlur in="SourceAlpha" stdDeviation="3" />
      <feOffset dx="2" dy="2" result="offsetblur" />
      <feComponentTransfer>
        <feFuncA type="linear" slope="0.2" />
      </feComponentTransfer>
      <feMerge>
        <feMergeNode />
        <feMergeNode in="SourceGraphic" />
      </feMerge>
    </filter>
  </defs>
  
  <!-- Background -->
  <rect width="800" height="600" fill="#f8f9fa" />
  
  <!-- Diagram Title -->
  <text x="400" y="40" font-family="Arial, sans-serif" font-size="24" text-anchor="middle" fill="#212121">DevSecOps Detailed Workflow</text>
  <text x="400" y="70" font-family="Arial, sans-serif" font-size="16" text-anchor="middle" fill="#757575">SAP-GitHub Integration Security Pipeline</text>
  
  <!-- Main Outer Circle -->
  <circle cx="400" cy="320" r="250" fill="none" stroke="#BDBDBD" stroke-width="2" stroke-dasharray="5,5" />
  
  <!-- Dev Phase -->
  <g transform="translate(400, 320) rotate(-30)">
    <path d="M 0,0 L 250,0 A 250,250 0 0,0 125,-216.5 L 0,0 Z" fill="url(#devGradient)" fill-opacity="0.2" stroke="#1565C0" stroke-width="2" />
    
    <!-- Inner Dev Elements -->
    <g transform="rotate(30) translate(-400, -320)">
      <!-- Code Phase -->
      <rect x="220" y="150" width="100" height="50" rx="5" ry="5" fill="url(#devGradient)" filter="url(#dropShadow)" />
      <text x="270" y="175" font-family="Arial, sans-serif" font-size="14" text-anchor="middle" fill="#FFFFFF">Code</text>
      <text x="270" y="190" font-family="Arial, sans-serif" font-size="10" text-anchor="middle" fill="#FFFFFF">Development</text>
      
      <!-- Plan Phase -->
      <rect x="180" y="220" width="100" height="50" rx="5" ry="5" fill="url(#devGradient)" filter="url(#dropShadow)" />
      <text x="230" y="245" font-family="Arial, sans-serif" font-size="14" text-anchor="middle" fill="#FFFFFF">Plan</text>
      <text x="230" y="260" font-family="Arial, sans-serif" font-size="10" text-anchor="middle" fill="#FFFFFF">Architecture</text>
      
      <!-- Build Phase -->
      <rect x="260" y="240" width="100" height="50" rx="5" ry="5" fill="url(#devGradient)" filter="url(#dropShadow)" />
      <text x="310" y="265" font-family="Arial, sans-serif" font-size="14" text-anchor="middle" fill="#FFFFFF">Build</text>
      <text x="310" y="280" font-family="Arial, sans-serif" font-size="10" text-anchor="middle" fill="#FFFFFF">CI Pipeline</text>
    </g>
  </g>
  
  <!-- Sec Phase -->
  <g transform="translate(400, 320) rotate(90)">
    <path d="M 0,0 L 250,0 A 250,250 0 0,0 125,-216.5 L 0,0 Z" fill="url(#secGradient)" fill-opacity="0.2" stroke="#E53935" stroke-width="2" />
    
    <!-- Inner Sec Elements -->
    <g transform="rotate(-90) translate(-400, -320)">
      <!-- Code Scanning -->
      <rect x="400" y="150" width="100" height="50" rx="5" ry="5" fill="url(#secGradient)" filter="url(#dropShadow)" />
      <text x="450" y="175" font-family="Arial, sans-serif" font-size="14" text-anchor="middle" fill="#FFFFFF">SAST</text>
      <text x="450" y="190" font-family="Arial, sans-serif" font-size="10" text-anchor="middle" fill="#FFFFFF">Static Analysis</text>
      
      <!-- Security Testing -->
      <rect x="480" y="220" width="100" height="50" rx="5" ry="5" fill="url(#secGradient)" filter="url(#dropShadow)" />
      <text x="530" y="245" font-family="Arial, sans-serif" font-size="14" text-anchor="middle" fill="#FFFFFF">DAST</text>
      <text x="530" y="260" font-family="Arial, sans-serif" font-size="10" text-anchor="middle" fill="#FFFFFF">Dynamic Analysis</text>
      
      <!-- Dependency Scanning -->
      <rect x="420" y="280" width="100" height="50" rx="5" ry="5" fill="url(#secGradient)" filter="url(#dropShadow)" />
      <text x="470" y="305" font-family="Arial, sans-serif" font-size="14" text-anchor="middle" fill="#FFFFFF">SCA</text>
      <text x="470" y="320" font-family="Arial, sans-serif" font-size="10" text-anchor="middle" fill="#FFFFFF">Dependency Scan</text>
    </g>
  </g>
  
  <!-- Ops Phase -->
  <g transform="translate(400, 320) rotate(210)">
    <path d="M 0,0 L 250,0 A 250,250 0 0,0 125,-216.5 L 0,0 Z" fill="url(#opsGradient)" fill-opacity="0.2" stroke="#388E3C" stroke-width="2" />
    
    <!-- Inner Ops Elements -->
    <g transform="rotate(-210) translate(-400, -320)">
      <!-- Deployment -->
      <rect x="300" y="400" width="100" height="50" rx="5" ry="5" fill="url(#opsGradient)" filter="url(#dropShadow)" />
      <text x="350" y="425" font-family="Arial, sans-serif" font-size="14" text-anchor="middle" fill="#FFFFFF">Deploy</text>
      <text x="350" y="440" font-family="Arial, sans-serif" font-size="10" text-anchor="middle" fill="#FFFFFF">SAP Transport</text>
      
      <!-- Release -->
      <rect x="420" y="430" width="100" height="50" rx="5" ry="5" fill="url(#opsGradient)" filter="url(#dropShadow)" />
      <text x="470" y="455" font-family="Arial, sans-serif" font-size="14" text-anchor="middle" fill="#FFFFFF">Release</text>
      <text x="470" y="470" font-family="Arial, sans-serif" font-size="10" text-anchor="middle" fill="#FFFFFF">Production</text>
      
      <!-- Operate -->
      <rect x="240" y="460" width="100" height="50" rx="5" ry="5" fill="url(#opsGradient)" filter="url(#dropShadow)" />
      <text x="290" y="485" font-family="Arial, sans-serif" font-size="14" text-anchor="middle" fill="#FFFFFF">Operate</text>
      <text x="290" y="500" font-family="Arial, sans-serif" font-size="10" text-anchor="middle" fill="#FFFFFF">Maintenance</text>
    </g>
  </g>
  
  <!-- Center Components -->
  <!-- Monitoring -->
  <circle cx="400" cy="320" r="80" fill="url(#monitorGradient)" fill-opacity="0.1" stroke="#F57F17" stroke-width="2" />
  <text x="400" y="310" font-family="Arial, sans-serif" font-size="16" font-weight="bold" text-anchor="middle" fill="#212121">Continuous</text>
  <text x="400" y="330" font-family="Arial, sans-serif" font-size="16" font-weight="bold" text-anchor="middle" fill="#212121">Monitoring</text>
  
  <!-- Security Controls -->
  <g transform="translate(340, 270)">
    <rect width="40" height="40" rx="5" ry="5" fill="url(#secGradient)" filter="url(#dropShadow)" />
    <text x="20" y="25" font-family="Arial, sans-serif" font-size="10" text-anchor="middle" fill="#FFFFFF">Sentinel</text>
  </g>
  
  <!-- Feedback -->
  <g transform="translate(420, 270)">
    <rect width="40" height="40" rx="5" ry="5" fill="url(#monitorGradient)" filter="url(#dropShadow)" />
    <text x="20" y="25" font-family="Arial, sans-serif" font-size="10" text-anchor="middle" fill="#FFFFFF">Metrics</text>
  </g>
  
  <!-- Governance -->
  <g transform="translate(340, 330)">
    <rect width="40" height="40" rx="5" ry="5" fill="url(#governanceGradient)" filter="url(#dropShadow)" />
    <text x="20" y="25" font-family="Arial, sans-serif" font-size="10" text-anchor="middle" fill="#FFFFFF">Govern</text>
  </g>
  
  <!-- Logging -->
  <g transform="translate(420, 330)">
    <rect width="40" height="40" rx="5" ry="5" fill="url(#opsGradient)" filter="url(#dropShadow)" />
    <text x="20" y="25" font-family="Arial, sans-serif" font-size="10" text-anchor="middle" fill="#FFFFFF">Logs</text>
  </g>
  
  <!-- Central Connectors -->
  <g transform="translate(400, 320)">
    <!-- Connect outward to phases -->
    <line x1="0" y1="0" x2="-130" y2="-150" stroke="#757575" stroke-width="1.5" stroke-dasharray="3,3" />
    <line x1="0" y1="0" x2="120" y2="-80" stroke="#757575" stroke-width="1.5" stroke-dasharray="3,3" />
    <line x1="0" y1="0" x2="-20" y2="160" stroke="#757575" stroke-width="1.5" stroke-dasharray="3,3" />
  </g>
  
  <!-- Continuous Flow Arrows -->
  <path d="M 400,70 C 650,70 650,570 400,570 C 150,570 150,70 400,70" fill="none" stroke="#757575" stroke-width="3" />
  <!-- Arrow at end -->
  <polygon points="410,70 400,60 390,70" fill="#757575" />
  <!-- Flow label -->
  <text x="700" y="320" font-family="Arial, sans-serif" font-size="16" text-anchor="middle" fill="#757575" transform="rotate(90 700,320)">Continuous Improvement</text>
  
  <!-- Legend -->
  <g transform="translate(50, 550)">
    <text x="0" y="-10" font-family="Arial, sans-serif" font-size="12" font-weight="bold" fill="#212121">Legend:</text>
    
    <rect x="0" y="0" width="15" height="15" fill="url(#devGradient)" />
    <text x="20" y="12" font-family="Arial, sans-serif" font-size="10" fill="#212121">Development</text>
    
    <rect x="100" y="0" width="15" height="15" fill="url(#secGradient)" />
    <text x="120" y="12" font-family="Arial, sans-serif" font-size="10" fill="#212121">Security</text>
    
    <rect x="180" y="0" width="15" height="15" fill="url(#opsGradient)" />
    <text x="200" y="12" font-family="Arial, sans-serif" font-size="10" fill="#212121">Operations</text>
    
    <rect x="270" y="0" width="15" height="15" fill="url(#monitorGradient)" />
    <text x="290" y="12" font-family="Arial, sans-serif" font-size="10" fill="#212121">Monitoring</text>
    
    <rect x="360" y="0" width="15" height="15" fill="url(#governanceGradient)" />
    <text x="380" y="12" font-family="Arial, sans-serif" font-size="10" fill="#212121">Governance</text>
  </g>
</svg>