<?xml version="1.0" encoding="UTF-8" standalone="no"?>
<svg xmlns="http://www.w3.org/2000/svg" xmlns:xlink="http://www.w3.org/1999/xlink" width="1000" height="550" viewBox="0 0 1000 550" role="img" aria-labelledby="title desc">
  <title id="title">CI/CD Pipeline Workflow</title>
  <desc id="desc">CI/CD pipeline workflow diagram for SAP-GitHub integration</desc>
  
  <!-- Styles -->
  <defs>
    <!-- Arrow Markers -->
    <marker id="arrowhead" markerWidth="10" markerHeight="7" refX="9" refY="3.5" orient="auto">
      <polygon points="0 0, 10 3.5, 0 7" fill="#9E9E9E" />
    </marker>
    
    <!-- Gradient Backgrounds -->
    <linearGradient id="sapGradient" x1="0%" y1="0%" x2="100%" y2="100%">
      <stop offset="0%" style="stop-color:#42A5F5;stop-opacity:1" />
      <stop offset="100%" style="stop-color:#1976D2;stop-opacity:1" />
    </linearGradient>
    
    <linearGradient id="githubGradient" x1="0%" y1="0%" x2="100%" y2="100%">
      <stop offset="0%" style="stop-color:#9C27B0;stop-opacity:1" />
      <stop offset="100%" style="stop-color:#7B1FA2;stop-opacity:1" />
    </linearGradient>
    
    <linearGradient id="ciGradient" x1="0%" y1="0%" x2="100%" y2="100%">
      <stop offset="0%" style="stop-color:#29B6F6;stop-opacity:1" />
      <stop offset="100%" style="stop-color:#039BE5;stop-opacity:1" />
    </linearGradient>
    
    <linearGradient id="cdGradient" x1="0%" y1="0%" x2="100%" y2="100%">
      <stop offset="0%" style="stop-color:#66BB6A;stop-opacity:1" />
      <stop offset="100%" style="stop-color:#43A047;stop-opacity:1" />
    </linearGradient>
    
    <linearGradient id="testGradient" x1="0%" y1="0%" x2="100%" y2="100%">
      <stop offset="0%" style="stop-color:#FFA726;stop-opacity:1" />
      <stop offset="100%" style="stop-color:#F57C00;stop-opacity:1" />
    </linearGradient>
    
    <linearGradient id="securityGradient" x1="0%" y1="0%" x2="100%" y2="100%">
      <stop offset="0%" style="stop-color:#EF5350;stop-opacity:1" />
      <stop offset="100%" style="stop-color:#E53935;stop-opacity:1" />
    </linearGradient>
    
    <filter id="dropShadow" x="-20%" y="-20%" width="140%" height="140%">
      <feGaussianBlur in="SourceAlpha" stdDeviation="2" />
      <feOffset dx="2" dy="2" result="offsetblur" />
      <feComponentTransfer>
        <feFuncA type="linear" slope="0.15" />
      </feComponentTransfer>
      <feMerge>
        <feMergeNode />
        <feMergeNode in="SourceGraphic" />
      </feMerge>
    </filter>
  </defs>
  
  <!-- Background -->
  <rect width="1000" height="550" fill="#FAFAFA" />
  
  <!-- Diagram Title -->
  <text x="500" y="40" font-family="Arial, sans-serif" font-size="24" text-anchor="middle" fill="#212121">CI/CD Pipeline Workflow</text>
  <text x="500" y="70" font-family="Arial, sans-serif" font-size="16" text-anchor="middle" fill="#757575">SAP-GitHub Integration Automation Pipeline</text>
  
  <!-- Pipeline Flow -->
  <!-- Main Pipeline Background -->
  <rect x="50" y="100" width="900" height="120" rx="10" ry="10" fill="#E8EAF6" stroke="#C5CAE9" stroke-width="2" />
  
  <!-- Pipeline Stages -->
  <!-- Development Phase -->
  <g transform="translate(150, 160)">
    <circle cx="0" cy="0" r="50" fill="url(#githubGradient)" filter="url(#dropShadow)" />
    <text x="0" y="-5" font-family="Arial, sans-serif" font-size="14" text-anchor="middle" fill="#FFFFFF">Source</text>
    <text x="0" y="15" font-family="Arial, sans-serif" font-size="12" text-anchor="middle" fill="#FFFFFF">Control</text>
  </g>
  
  <!-- Build Phase -->
  <g transform="translate(300, 160)">
    <circle cx="0" cy="0" r="50" fill="url(#ciGradient)" filter="url(#dropShadow)" />
    <text x="0" y="-5" font-family="Arial, sans-serif" font-size="14" text-anchor="middle" fill="#FFFFFF">Build</text>
    <text x="0" y="15" font-family="Arial, sans-serif" font-size="12" text-anchor="middle" fill="#FFFFFF">Process</text>
  </g>
  
  <!-- Test Phase -->
  <g transform="translate(450, 160)">
    <circle cx="0" cy="0" r="50" fill="url(#testGradient)" filter="url(#dropShadow)" />
    <text x="0" y="-5" font-family="Arial, sans-serif" font-size="14" text-anchor="middle" fill="#FFFFFF">Test</text>
    <text x="0" y="15" font-family="Arial, sans-serif" font-size="12" text-anchor="middle" fill="#FFFFFF">Validation</text>
  </g>
  
  <!-- Security Phase -->
  <g transform="translate(600, 160)">
    <circle cx="0" cy="0" r="50" fill="url(#securityGradient)" filter="url(#dropShadow)" />
    <text x="0" y="-5" font-family="Arial, sans-serif" font-size="14" text-anchor="middle" fill="#FFFFFF">Security</text>
    <text x="0" y="15" font-family="Arial, sans-serif" font-size="12" text-anchor="middle" fill="#FFFFFF">Scan</text>
  </g>
  
  <!-- Deploy Phase -->
  <g transform="translate(750, 160)">
    <circle cx="0" cy="0" r="50" fill="url(#cdGradient)" filter="url(#dropShadow)" />
    <text x="0" y="-5" font-family="Arial, sans-serif" font-size="14" text-anchor="middle" fill="#FFFFFF">Deploy</text>
    <text x="0" y="15" font-family="Arial, sans-serif" font-size="12" text-anchor="middle" fill="#FFFFFF">Transport</text>
  </g>
  
  <!-- Pipeline Flow Connectors -->
  <line x1="200" y1="160" x2="250" y2="160" stroke="#9E9E9E" stroke-width="2" marker-end="url(#arrowhead)" />
  <line x1="350" y1="160" x2="400" y2="160" stroke="#9E9E9E" stroke-width="2" marker-end="url(#arrowhead)" />
  <line x1="500" y1="160" x2="550" y2="160" stroke="#9E9E9E" stroke-width="2" marker-end="url(#arrowhead)" />
  <line x1="650" y1="160" x2="700" y2="160" stroke="#9E9E9E" stroke-width="2" marker-end="url(#arrowhead)" />
  
  <!-- Detailed Steps Sections -->
  <!-- Source Control Steps -->
  <rect x="60" y="240" width="160" height="220" rx="5" ry="5" fill="#F3E5F5" stroke="#9C27B0" stroke-width="1" />
  <text x="140" y="260" font-family="Arial, sans-serif" font-size="14" font-weight="bold" text-anchor="middle" fill="#7B1FA2">1. Source Control</text>
  
  <rect x="70" y="275" width="140" height="35" rx="3" ry="3" fill="#FFFFFF" stroke="#9C27B0" stroke-width="1" />
  <text x="140" y="297" font-family="Arial, sans-serif" font-size="12" text-anchor="middle" fill="#212121">Feature Branch</text>
  
  <rect x="70" y="320" width="140" height="35" rx="3" ry="3" fill="#FFFFFF" stroke="#9C27B0" stroke-width="1" />
  <text x="140" y="342" font-family="Arial, sans-serif" font-size="12" text-anchor="middle" fill="#212121">Pull Request</text>
  
  <rect x="70" y="365" width="140" height="35" rx="3" ry="3" fill="#FFFFFF" stroke="#9C27B0" stroke-width="1" />
  <text x="140" y="387" font-family="Arial, sans-serif" font-size="12" text-anchor="middle" fill="#212121">Code Review</text>
  
  <rect x="70" y="410" width="140" height="35" rx="3" ry="3" fill="#FFFFFF" stroke="#9C27B0" stroke-width="1" />
  <text x="140" y="432" font-family="Arial, sans-serif" font-size="12" text-anchor="middle" fill="#212121">Merge</text>
  
  <!-- Build Steps -->
  <rect x="230" y="240" width="160" height="220" rx="5" ry="5" fill="#E1F5FE" stroke="#039BE5" stroke-width="1" />
  <text x="310" y="260" font-family="Arial, sans-serif" font-size="14" font-weight="bold" text-anchor="middle" fill="#0288D1">2. Build Process</text>
  
  <rect x="240" y="275" width="140" height="35" rx="3" ry="3" fill="#FFFFFF" stroke="#039BE5" stroke-width="1" />
  <text x="310" y="297" font-family="Arial, sans-serif" font-size="12" text-anchor="middle" fill="#212121">Code Checkout</text>
  
  <rect x="240" y="320" width="140" height="35" rx="3" ry="3" fill="#FFFFFF" stroke="#039BE5" stroke-width="1" />
  <text x="310" y="342" font-family="Arial, sans-serif" font-size="12" text-anchor="middle" fill="#212121">Dependencies</text>
  
  <rect x="240" y="365" width="140" height="35" rx="3" ry="3" fill="#FFFFFF" stroke="#039BE5" stroke-width="1" />
  <text x="310" y="387" font-family="Arial, sans-serif" font-size="12" text-anchor="middle" fill="#212121">Compile/Build</text>
  
  <rect x="240" y="410" width="140" height="35" rx="3" ry="3" fill="#FFFFFF" stroke="#039BE5" stroke-width="1" />
  <text x="310" y="432" font-family="Arial, sans-serif" font-size="12" text-anchor="middle" fill="#212121">Artifacts</text>
  
  <!-- Test Steps -->
  <rect x="400" y="240" width="160" height="220" rx="5" ry="5" fill="#FFF3E0" stroke="#F57C00" stroke-width="1" />
  <text x="480" y="260" font-family="Arial, sans-serif" font-size="14" font-weight="bold" text-anchor="middle" fill="#EF6C00">3. Test Validation</text>
  
  <rect x="410" y="275" width="140" height="35" rx="3" ry="3" fill="#FFFFFF" stroke="#F57C00" stroke-width="1" />
  <text x="480" y="297" font-family="Arial, sans-serif" font-size="12" text-anchor="middle" fill="#212121">Unit Tests</text>
  
  <rect x="410" y="320" width="140" height="35" rx="3" ry="3" fill="#FFFFFF" stroke="#F57C00" stroke-width="1" />
  <text x="480" y="342" font-family="Arial, sans-serif" font-size="12" text-anchor="middle" fill="#212121">Integration Tests</text>
  
  <rect x="410" y="365" width="140" height="35" rx="3" ry="3" fill="#FFFFFF" stroke="#F57C00" stroke-width="1" />
  <text x="480" y="387" font-family="Arial, sans-serif" font-size="12" text-anchor="middle" fill="#212121">ABAP Unit</text>
  
  <rect x="410" y="410" width="140" height="35" rx="3" ry="3" fill="#FFFFFF" stroke="#F57C00" stroke-width="1" />
  <text x="480" y="432" font-family="Arial, sans-serif" font-size="12" text-anchor="middle" fill="#212121">UI Tests</text>
  
  <!-- Security Steps -->
  <rect x="570" y="240" width="160" height="220" rx="5" ry="5" fill="#FFEBEE" stroke="#E53935" stroke-width="1" />
  <text x="650" y="260" font-family="Arial, sans-serif" font-size="14" font-weight="bold" text-anchor="middle" fill="#D32F2F">4. Security Scan</text>
  
  <rect x="580" y="275" width="140" height="35" rx="3" ry="3" fill="#FFFFFF" stroke="#E53935" stroke-width="1" />
  <text x="650" y="297" font-family="Arial, sans-serif" font-size="12" text-anchor="middle" fill="#212121">SAST</text>
  
  <rect x="580" y="320" width="140" height="35" rx="3" ry="3" fill="#FFFFFF" stroke="#E53935" stroke-width="1" />
  <text x="650" y="342" font-family="Arial, sans-serif" font-size="12" text-anchor="middle" fill="#212121">SCA</text>
  
  <rect x="580" y="365" width="140" height="35" rx="3" ry="3" fill="#FFFFFF" stroke="#E53935" stroke-width="1" />
  <text x="650" y="387" font-family="Arial, sans-serif" font-size="12" text-anchor="middle" fill="#212121">Code Quality</text>
  
  <rect x="580" y="410" width="140" height="35" rx="3" ry="3" fill="#FFFFFF" stroke="#E53935" stroke-width="1" />
  <text x="650" y="432" font-family="Arial, sans-serif" font-size="12" text-anchor="middle" fill="#212121">Security Policy</text>
  
  <!-- Deploy Steps -->
  <rect x="740" y="240" width="160" height="220" rx="5" ry="5" fill="#E8F5E9" stroke="#43A047" stroke-width="1" />
  <text x="820" y="260" font-family="Arial, sans-serif" font-size="14" font-weight="bold" text-anchor="middle" fill="#2E7D32">5. Deploy Process</text>
  
  <rect x="750" y="275" width="140" height="35" rx="3" ry="3" fill="#FFFFFF" stroke="#43A047" stroke-width="1" />
  <text x="820" y="297" font-family="Arial, sans-serif" font-size="12" text-anchor="middle" fill="#212121">Dev Transport</text>
  
  <rect x="750" y="320" width="140" height="35" rx="3" ry="3" fill="#FFFFFF" stroke="#43A047" stroke-width="1" />
  <text x="820" y="342" font-family="Arial, sans-serif" font-size="12" text-anchor="middle" fill="#212121">QAS Transport</text>
  
  <rect x="750" y="365" width="140" height="35" rx="3" ry="3" fill="#FFFFFF" stroke="#43A047" stroke-width="1" />
  <text x="820" y="387" font-family="Arial, sans-serif" font-size="12" text-anchor="middle" fill="#212121">Approval Gate</text>
  
  <rect x="750" y="410" width="140" height="35" rx="3" ry="3" fill="#FFFFFF" stroke="#43A047" stroke-width="1" />
  <text x="820" y="432" font-family="Arial, sans-serif" font-size="12" text-anchor="middle" fill="#212121">PRD Transport</text>
  
  <!-- SAP System Block -->
  <g transform="translate(900, 350)">
    <rect x="-100" y="-30" width="160" height="60" rx="5" ry="5" fill="url(#sapGradient)" filter="url(#dropShadow)" />
    <text x="-20" y="5" font-family="Arial, sans-serif" font-size="14" text-anchor="middle" fill="#FFFFFF">SAP System</text>
    
    <path d="M -80,-30 L -80,-80 L -250,-80 L -250,120 L 50,120 L 50,-80 L -20,-80 L -20,-30" stroke="#1976D2" stroke-width="2" stroke-dasharray="5,5" fill="none" />
    <text x="-100" y="140" font-family="Arial, sans-serif" font-size="12" fill="#1976D2">SAP Landscape (DEV, QAS, PRD)</text>
  </g>
  
  <!-- GitHub Block -->
  <g transform="translate(80, 480)">
    <rect x="-60" y="-20" width="120" height="50" rx="5" ry="5" fill="url(#githubGradient)" filter="url(#dropShadow)" />
    <text x="0" y="5" font-family="Arial, sans-serif" font-size="14" text-anchor="middle" fill="#FFFFFF">GitHub</text>
  </g>
  
  <!-- Legend -->
  <g transform="translate(50, 520)">
    <text x="0" y="0" font-family="Arial, sans-serif" font-size="12" font-weight="bold" fill="#212121">Legend:</text>
    
    <rect x="90" y="-10" width="15" height="15" fill="url(#githubGradient)" />
    <text x="110" y="2" font-family="Arial, sans-serif" font-size="10" fill="#212121">GitHub</text>
    
    <rect x="180" y="-10" width="15" height="15" fill="url(#ciGradient)" />
    <text x="200" y="2" font-family="Arial, sans-serif" font-size="10" fill="#212121">CI Process</text>
    
    <rect x="270" y="-10" width="15" height="15" fill="url(#testGradient)" />
    <text x="290" y="2" font-family="Arial, sans-serif" font-size="10" fill="#212121">Testing</text>
    
    <rect x="340" y="-10" width="15" height="15" fill="url(#securityGradient)" />
    <text x="360" y="2" font-family="Arial, sans-serif" font-size="10" fill="#212121">Security</text>
    
    <rect x="420" y="-10" width="15" height="15" fill="url(#cdGradient)" />
    <text x="440" y="2" font-family="Arial, sans-serif" font-size="10" fill="#212121">CD Process</text>
    
    <rect x="520" y="-10" width="15" height="15" fill="url(#sapGradient)" />
    <text x="540" y="2" font-family="Arial, sans-serif" font-size="10" fill="#212121">SAP Systems</text>
  </g>
</svg>