<?xml version="1.0" encoding="UTF-8"?>
<svg width="800" height="600" xmlns="http://www.w3.org/2000/svg">
  <!-- Background and Title -->
  <rect width="800" height="600" fill="#f8f9fa" />
  <text x="400" y="40" font-family="Arial" font-size="24" text-anchor="middle" font-weight="bold">SAP-GitHub Integration Decision Tree</text>
  
  <!-- Root Node -->
  <circle cx="400" cy="100" r="40" fill="#5E35B1" stroke="#4527A0" stroke-width="2" />
  <text x="400" y="105" font-family="Arial" font-size="14" text-anchor="middle" fill="white">Start</text>
  
  <!-- Level 1 Decision: SAP Technology -->
  <rect x="130" y="180" width="160" height="60" rx="10" ry="10" fill="#3949AB" stroke="#303F9F" stroke-width="2" />
  <text x="210" y="205" font-family="Arial" font-size="14" text-anchor="middle" fill="white">ABAP</text>
  <text x="210" y="225" font-family="Arial" font-size="12" text-anchor="middle" fill="white">Backend Development</text>
  
  <rect x="320" y="180" width="160" height="60" rx="10" ry="10" fill="#3949AB" stroke="#303F9F" stroke-width="2" />
  <text x="400" y="205" font-family="Arial" font-size="14" text-anchor="middle" fill="white">Fiori/UI5</text>
  <text x="400" y="225" font-family="Arial" font-size="12" text-anchor="middle" fill="white">Frontend Development</text>
  
  <rect x="510" y="180" width="160" height="60" rx="10" ry="10" fill="#3949AB" stroke="#303F9F" stroke-width="2" />
  <text x="590" y="205" font-family="Arial" font-size="14" text-anchor="middle" fill="white">SAP HANA</text>
  <text x="590" y="225" font-family="Arial" font-size="12" text-anchor="middle" fill="white">Database Development</text>
  
  <!-- Level 2 Decision: ABAP Options -->
  <rect x="50" y="280" width="140" height="60" rx="10" ry="10" fill="#1E88E5" stroke="#1976D2" stroke-width="2" />
  <text x="120" y="305" font-family="Arial" font-size="14" text-anchor="middle" fill="white">abapGit</text>
  <text x="120" y="325" font-family="Arial" font-size="12" text-anchor="middle" fill="white">Direct Integration</text>
  
  <rect x="230" y="280" width="140" height="60" rx="10" ry="10" fill="#1E88E5" stroke="#1976D2" stroke-width="2" />
  <text x="300" y="305" font-family="Arial" font-size="14" text-anchor="middle" fill="white">gCTS</text>
  <text x="300" y="325" font-family="Arial" font-size="12" text-anchor="middle" fill="white">Transport-based</text>
  
  <!-- Level 2 Decision: Fiori/UI5 Options -->
  <rect x="320" y="280" width="160" height="60" rx="10" ry="10" fill="#1E88E5" stroke="#1976D2" stroke-width="2" />
  <text x="400" y="305" font-family="Arial" font-size="14" text-anchor="middle" fill="white">Standard Git</text>
  <text x="400" y="325" font-family="Arial" font-size="12" text-anchor="middle" fill="white">Web IDE / VSCode</text>
  
  <!-- Level 2 Decision: HANA Options -->
  <rect x="510" y="280" width="140" height="60" rx="10" ry="10" fill="#1E88E5" stroke="#1976D2" stroke-width="2" />
  <text x="580" y="305" font-family="Arial" font-size="14" text-anchor="middle" fill="white">HDI</text>
  <text x="580" y="325" font-family="Arial" font-size="12" text-anchor="middle" fill="white">Container-based</text>
  
  <rect x="680" y="280" width="70" height="60" rx="10" ry="10" fill="#1E88E5" stroke="#1976D2" stroke-width="2" />
  <text x="715" y="305" font-family="Arial" font-size="14" text-anchor="middle" fill="white">XSA</text>
  <text x="715" y="325" font-family="Arial" font-size="12" text-anchor="middle" fill="white">MTA</text>
  
  <!-- Level 3 Decision: CI/CD Strategy -->
  <rect x="50" y="380" width="140" height="60" rx="10" ry="10" fill="#039BE5" stroke="#0288D1" stroke-width="2" />
  <text x="120" y="405" font-family="Arial" font-size="14" text-anchor="middle" fill="white">GitHub Actions</text>
  <text x="120" y="425" font-family="Arial" font-size="12" text-anchor="middle" fill="white">Native CI/CD</text>
  
  <rect x="230" y="380" width="140" height="60" rx="10" ry="10" fill="#039BE5" stroke="#0288D1" stroke-width="2" />
  <text x="300" y="405" font-family="Arial" font-size="14" text-anchor="middle" fill="white">Jenkins</text>
  <text x="300" y="425" font-family="Arial" font-size="12" text-anchor="middle" fill="white">Custom Pipeline</text>
  
  <rect x="410" y="380" width="140" height="60" rx="10" ry="10" fill="#039BE5" stroke="#0288D1" stroke-width="2" />
  <text x="480" y="405" font-family="Arial" font-size="14" text-anchor="middle" fill="white">SAP CI/CD</text>
  <text x="480" y="425" font-family="Arial" font-size="12" text-anchor="middle" fill="white">SAP Cloud Tools</text>
  
  <rect x="590" y="380" width="140" height="60" rx="10" ry="10" fill="#039BE5" stroke="#0288D1" stroke-width="2" />
  <text x="660" y="405" font-family="Arial" font-size="14" text-anchor="middle" fill="white">Hybrid</text>
  <text x="660" y="425" font-family="Arial" font-size="12" text-anchor="middle" fill="white">Combined Approach</text>
  
  <!-- Level 4: Implementation Options -->
  <rect x="50" y="480" width="150" height="60" rx="10" ry="10" fill="#00ACC1" stroke="#0097A7" stroke-width="2" />
  <text x="125" y="505" font-family="Arial" font-size="14" text-anchor="middle" fill="white">PR-Based Flow</text>
  <text x="125" y="525" font-family="Arial" font-size="12" text-anchor="middle" fill="white">Code Review Model</text>
  
  <rect x="230" y="480" width="150" height="60" rx="10" ry="10" fill="#00ACC1" stroke="#0097A7" stroke-width="2" />
  <text x="305" y="505" font-family="Arial" font-size="14" text-anchor="middle" fill="white">Transport-Driven</text>
  <text x="305" y="525" font-family="Arial" font-size="12" text-anchor="middle" fill="white">SAP Change Process</text>
  
  <rect x="410" y="480" width="150" height="60" rx="10" ry="10" fill="#00ACC1" stroke="#0097A7" stroke-width="2" />
  <text x="485" y="505" font-family="Arial" font-size="14" text-anchor="middle" fill="white">Branch Strategy</text>
  <text x="485" y="525" font-family="Arial" font-size="12" text-anchor="middle" fill="white">GitFlow or Trunk</text>
  
  <rect x="590" y="480" width="150" height="60" rx="10" ry="10" fill="#00ACC1" stroke="#0097A7" stroke-width="2" />
  <text x="665" y="505" font-family="Arial" font-size="14" text-anchor="middle" fill="white">Automated Deploy</text>
  <text x="665" y="525" font-family="Arial" font-size="12" text-anchor="middle" fill="white">To Multiple Systems</text>
  
  <!-- Connecting Lines -->
  <!-- Root to Level 1 -->
  <line x1="400" y1="140" x2="400" y2="160" stroke="#555" stroke-width="2" />
  
  <line x1="400" y1="160" x2="210" y2="180" stroke="#555" stroke-width="2" />
  <line x1="400" y1="160" x2="400" y2="180" stroke="#555" stroke-width="2" />
  <line x1="400" y1="160" x2="590" y2="180" stroke="#555" stroke-width="2" />
  
  <!-- Level 1 to Level 2 -->
  <line x1="210" y1="240" x2="120" y2="280" stroke="#555" stroke-width="2" />
  <line x1="210" y1="240" x2="300" y2="280" stroke="#555" stroke-width="2" />
  
  <line x1="400" y1="240" x2="400" y2="280" stroke="#555" stroke-width="2" />
  
  <line x1="590" y1="240" x2="580" y2="280" stroke="#555" stroke-width="2" />
  <line x1="590" y1="240" x2="715" y2="280" stroke="#555" stroke-width="2" />
  
  <!-- Level 2 to Level 3 -->
  <line x1="120" y1="340" x2="120" y2="380" stroke="#555" stroke-width="2" />
  <line x1="300" y1="340" x2="300" y2="380" stroke="#555" stroke-width="2" />
  <line x1="400" y1="340" x2="480" y2="380" stroke="#555" stroke-width="2" />
  <line x1="580" y1="340" x2="480" y2="380" stroke="#555" stroke-width="2" />
  <line x1="715" y1="340" x2="660" y2="380" stroke="#555" stroke-width="2" />
  
  <!-- Level 3 to Level 4 -->
  <line x1="120" y1="440" x2="125" y2="480" stroke="#555" stroke-width="2" />
  <line x1="300" y1="440" x2="305" y2="480" stroke="#555" stroke-width="2" />
  <line x1="480" y1="440" x2="485" y2="480" stroke="#555" stroke-width="2" />
  <line x1="660" y1="440" x2="665" y2="480" stroke="#555" stroke-width="2" />
  
  <!-- Legend -->
  <rect x="50" y="560" width="700" height="30" rx="5" ry="5" fill="white" stroke="#ccc" stroke-width="1" />
  
  <circle cx="70" cy="575" r="10" fill="#5E35B1" stroke="#4527A0" stroke-width="2" />
  <text x="90" y="579" font-family="Arial" font-size="12">Start</text>
  
  <rect x="130" y="565" width="20" height="20" rx="5" ry="5" fill="#3949AB" stroke="#303F9F" stroke-width="2" />
  <text x="160" y="579" font-family="Arial" font-size="12">SAP Technology</text>
  
  <rect x="250" y="565" width="20" height="20" rx="5" ry="5" fill="#1E88E5" stroke="#1976D2" stroke-width="2" />
  <text x="280" y="579" font-family="Arial" font-size="12">Integration Method</text>
  
  <rect x="390" y="565" width="20" height="20" rx="5" ry="5" fill="#039BE5" stroke="#0288D1" stroke-width="2" />
  <text x="420" y="579" font-family="Arial" font-size="12">CI/CD Strategy</text>
  
  <rect x="510" y="565" width="20" height="20" rx="5" ry="5" fill="#00ACC1" stroke="#0097A7" stroke-width="2" />
  <text x="540" y="579" font-family="Arial" font-size="12">Implementation Option</text>
  
  <line x1="620" y1="575" x2="650" y2="575" stroke="#555" stroke-width="2" />
  <text x="670" y="579" font-family="Arial" font-size="12">Decision Path</text>
</svg> 