<?xml version="1.0" encoding="UTF-8"?>
<svg width="1000" height="600" xmlns="http://www.w3.org/2000/svg">
  <!-- Background and Header -->
  <rect width="1000" height="600" fill="#FAFAFA" />
  
  <!-- Dashboard Header -->
  <rect width="1000" height="60" fill="#3F51B5" />
  <text x="30" y="38" font-family="Arial" font-size="20" fill="white" font-weight="bold">SAP-GitHub Integration Monitoring Dashboard</text>
  
  <!-- Dashboard Controls -->
  <rect x="750" y="15" width="80" height="30" rx="5" ry="5" fill="#5C6BC0" />
  <text x="790" y="35" font-family="Arial" font-size="12" fill="white" text-anchor="middle">Refresh</text>
  
  <rect x="850" y="15" width="120" height="30" rx="5" ry="5" fill="#5C6BC0" />
  <text x="910" y="35" font-family="Arial" font-size="12" fill="white" text-anchor="middle">Last 24 Hours ▼</text>
  
  <!-- Top Row KPIs -->
  <rect x="20" y="80" width="230" height="100" rx="5" ry="5" fill="white" stroke="#E0E0E0" stroke-width="1" />
  <text x="30" y="100" font-family="Arial" font-size="14" fill="#5C6BC0">Total Integrations</text>
  <text x="135" y="145" font-family="Arial" font-size="36" fill="#3F51B5" font-weight="bold" text-anchor="middle">134</text>
  <text x="135" y="170" font-family="Arial" font-size="12" fill="#4CAF50" font-weight="bold" text-anchor="middle">↑ 12%</text>
  
  <rect x="260" y="80" width="230" height="100" rx="5" ry="5" fill="white" stroke="#E0E0E0" stroke-width="1" />
  <text x="270" y="100" font-family="Arial" font-size="14" fill="#5C6BC0">Success Rate</text>
  <text x="375" y="145" font-family="Arial" font-size="36" fill="#4CAF50" font-weight="bold" text-anchor="middle">96.2%</text>
  <text x="375" y="170" font-family="Arial" font-size="12" fill="#4CAF50" font-weight="bold" text-anchor="middle">↑ 3.5%</text>
  
  <rect x="500" y="80" width="230" height="100" rx="5" ry="5" fill="white" stroke="#E0E0E0" stroke-width="1" />
  <text x="510" y="100" font-family="Arial" font-size="14" fill="#5C6BC0">Failed Integrations</text>
  <text x="615" y="145" font-family="Arial" font-size="36" fill="#FF5252" font-weight="bold" text-anchor="middle">5</text>
  <text x="615" y="170" font-family="Arial" font-size="12" fill="#4CAF50" font-weight="bold" text-anchor="middle">↓ 25%</text>
  
  <rect x="740" y="80" width="240" height="100" rx="5" ry="5" fill="white" stroke="#E0E0E0" stroke-width="1" />
  <text x="750" y="100" font-family="Arial" font-size="14" fill="#5C6BC0">Avg. Response Time</text>
  <text x="860" y="145" font-family="Arial" font-size="36" fill="#FF9800" font-weight="bold" text-anchor="middle">1.2s</text>
  <text x="860" y="170" font-family="Arial" font-size="12" fill="#4CAF50" font-weight="bold" text-anchor="middle">↓ 8%</text>
  
  <!-- Middle Row - SAP System Integration Status -->
  <rect x="20" y="200" width="480" height="230" rx="5" ry="5" fill="white" stroke="#E0E0E0" stroke-width="1" />
  <text x="30" y="225" font-family="Arial" font-size="16" fill="#3F51B5" font-weight="bold">SAP System Integration Status</text>
  
  <!-- Status Table -->
  <rect x="30" y="240" width="460" height="30" fill="#E8EAF6" />
  <text x="50" y="260" font-family="Arial" font-size="12" fill="#3F51B5" font-weight="bold">System</text>
  <text x="180" y="260" font-family="Arial" font-size="12" fill="#3F51B5" font-weight="bold">Status</text>
  <text x="300" y="260" font-family="Arial" font-size="12" fill="#3F51B5" font-weight="bold">Last Sync</text>
  <text x="420" y="260" font-family="Arial" font-size="12" fill="#3F51B5" font-weight="bold">Health</text>
  
  <!-- Status Table Row 1 -->
  <rect x="30" y="270" width="460" height="30" fill="white" stroke="#E8EAF6" stroke-width="1" />
  <text x="50" y="290" font-family="Arial" font-size="12" fill="#212121">DEV</text>
  <circle cx="180" cy="285" r="8" fill="#4CAF50" />
  <text x="200" y="290" font-family="Arial" font-size="12" fill="#212121">Connected</text>
  <text x="300" y="290" font-family="Arial" font-size="12" fill="#212121">5 min ago</text>
  <rect x="390" y="278" width="60" height="15" rx="7" ry="7" fill="#4CAF50" />
  <text x="420" y="290" font-family="Arial" font-size="10" fill="white" text-anchor="middle">100%</text>
  
  <!-- Status Table Row 2 -->
  <rect x="30" y="300" width="460" height="30" fill="white" stroke="#E8EAF6" stroke-width="1" />
  <text x="50" y="320" font-family="Arial" font-size="12" fill="#212121">QAS</text>
  <circle cx="180" cy="315" r="8" fill="#4CAF50" />
  <text x="200" y="320" font-family="Arial" font-size="12" fill="#212121">Connected</text>
  <text x="300" y="320" font-family="Arial" font-size="12" fill="#212121">15 min ago</text>
  <rect x="390" y="308" width="60" height="15" rx="7" ry="7" fill="#4CAF50" />
  <text x="420" y="320" font-family="Arial" font-size="10" fill="white" text-anchor="middle">98%</text>
  
  <!-- Status Table Row 3 -->
  <rect x="30" y="330" width="460" height="30" fill="white" stroke="#E8EAF6" stroke-width="1" />
  <text x="50" y="350" font-family="Arial" font-size="12" fill="#212121">PRD</text>
  <circle cx="180" cy="345" r="8" fill="#4CAF50" />
  <text x="200" y="350" font-family="Arial" font-size="12" fill="#212121">Connected</text>
  <text x="300" y="350" font-family="Arial" font-size="12" fill="#212121">20 min ago</text>
  <rect x="390" y="338" width="60" height="15" rx="7" ry="7" fill="#4CAF50" />
  <text x="420" y="350" font-family="Arial" font-size="10" fill="white" text-anchor="middle">100%</text>
  
  <!-- Status Table Row 4 -->
  <rect x="30" y="360" width="460" height="30" fill="white" stroke="#E8EAF6" stroke-width="1" />
  <text x="50" y="380" font-family="Arial" font-size="12" fill="#212121">SBX</text>
  <circle cx="180" cy="375" r="8" fill="#FFC107" />
  <text x="200" y="380" font-family="Arial" font-size="12" fill="#212121">Degraded</text>
  <text x="300" y="380" font-family="Arial" font-size="12" fill="#212121">1h 5m ago</text>
  <rect x="390" y="368" width="60" height="15" rx="7" ry="7" fill="#FFC107" />
  <text x="420" y="380" font-family="Arial" font-size="10" fill="white" text-anchor="middle">76%</text>
  
  <!-- GitHub Integration Status -->
  <rect x="510" y="200" width="470" height="230" rx="5" ry="5" fill="white" stroke="#E0E0E0" stroke-width="1" />
  <text x="520" y="225" font-family="Arial" font-size="16" fill="#3F51B5" font-weight="bold">GitHub Integration Status</text>
  
  <!-- GitHub Integration Chart (simplified representation) -->
  <rect x="530" y="240" width="430" height="170" fill="#E8EAF6" stroke="#C5CAE9" stroke-width="1" />
  
  <!-- Chart X and Y axes -->
  <line x1="530" y1="410" x2="960" y2="410" stroke="#7986CB" stroke-width="1" />
  <line x1="530" y1="240" x2="530" y2="410" stroke="#7986CB" stroke-width="1" />
  
  <!-- X-axis labels -->
  <text x="560" y="425" font-family="Arial" font-size="10" fill="#3F51B5" text-anchor="middle">00:00</text>
  <text x="650" y="425" font-family="Arial" font-size="10" fill="#3F51B5" text-anchor="middle">06:00</text>
  <text x="740" y="425" font-family="Arial" font-size="10" fill="#3F51B5" text-anchor="middle">12:00</text>
  <text x="830" y="425" font-family="Arial" font-size="10" fill="#3F51B5" text-anchor="middle">18:00</text>
  <text x="920" y="425" font-family="Arial" font-size="10" fill="#3F51B5" text-anchor="middle">00:00</text>
  
  <!-- Y-axis labels -->
  <text x="520" y="410" font-family="Arial" font-size="10" fill="#3F51B5" text-anchor="end">0</text>
  <text x="520" y="355" font-family="Arial" font-size="10" fill="#3F51B5" text-anchor="end">10</text>
  <text x="520" y="300" font-family="Arial" font-size="10" fill="#3F51B5" text-anchor="end">20</text>
  <text x="520" y="245" font-family="Arial" font-size="10" fill="#3F51B5" text-anchor="end">30</text>
  
  <!-- Chart Data - Blue Line (Successful Integrations) -->
  <polyline points="530,380 570,350 610,370 650,320 690,340 730,300 770,280 810,330 850,310 890,290" 
            fill="none" stroke="#2196F3" stroke-width="2" />
            
  <!-- Chart Data - Red Line (Failed Integrations) -->
  <polyline points="530,405 570,395 610,400 650,390 690,395 730,400 770,395 810,405 850,400 890,395" 
            fill="none" stroke="#FF5252" stroke-width="2" />
            
  <!-- Chart Legend -->
  <rect x="670" y="250" width="12" height="12" fill="#2196F3" />
  <text x="690" y="260" font-family="Arial" font-size="10" fill="#212121">Successful</text>
  
  <rect x="770" y="250" width="12" height="12" fill="#FF5252" />
  <text x="790" y="260" font-family="Arial" font-size="10" fill="#212121">Failed</text>
  
  <!-- Bottom Row - Recent Activities and Alerts -->
  <rect x="20" y="450" width="600" height="130" rx="5" ry="5" fill="white" stroke="#E0E0E0" stroke-width="1" />
  <text x="30" y="475" font-family="Arial" font-size="16" fill="#3F51B5" font-weight="bold">Recent Integration Activities</text>
  
  <!-- Activity List -->
  <rect x="30" y="490" width="580" height="25" fill="#E8EAF6" />
  <text x="45" y="507" font-family="Arial" font-size="12" fill="#3F51B5" font-weight="bold">Time</text>
  <text x="125" y="507" font-family="Arial" font-size="12" fill="#3F51B5" font-weight="bold">System</text>
  <text x="200" y="507" font-family="Arial" font-size="12" fill="#3F51B5" font-weight="bold">Activity</text>
  <text x="480" y="507" font-family="Arial" font-size="12" fill="#3F51B5" font-weight="bold">Status</text>
  
  <!-- Activity Item 1 -->
  <rect x="30" y="515" width="580" height="25" fill="white" stroke="#E8EAF6" stroke-width="1" />
  <text x="45" y="532" font-family="Arial" font-size="12" fill="#212121">09:45:22</text>
  <text x="125" y="532" font-family="Arial" font-size="12" fill="#212121">DEV</text>
  <text x="200" y="532" font-family="Arial" font-size="12" fill="#212121">Code push from SAP to GitHub</text>
  <rect x="480" y="522" width="70" height="15" rx="7" ry="7" fill="#4CAF50" />
  <text x="515" y="532" font-family="Arial" font-size="10" fill="white" text-anchor="middle">Success</text>
  
  <!-- Activity Item 2 -->
  <rect x="30" y="540" width="580" height="25" fill="white" stroke="#E8EAF6" stroke-width="1" />
  <text x="45" y="557" font-family="Arial" font-size="12" fill="#212121">09:32:15</text>
  <text x="125" y="557" font-family="Arial" font-size="12" fill="#212121">QAS</text>
  <text x="200" y="557" font-family="Arial" font-size="12" fill="#212121">Pull request merged to main</text>
  <rect x="480" y="547" width="70" height="15" rx="7" ry="7" fill="#4CAF50" />
  <text x="515" y="557" font-family="Arial" font-size="10" fill="white" text-anchor="middle">Success</text>
  
  <!-- System Alerts Panel -->
  <rect x="630" y="450" width="350" height="130" rx="5" ry="5" fill="white" stroke="#E0E0E0" stroke-width="1" />
  <text x="640" y="475" font-family="Arial" font-size="16" fill="#3F51B5" font-weight="bold">System Alerts</text>
  
  <!-- Alert Item 1 -->
  <rect x="640" y="490" width="330" height="40" rx="5" ry="5" fill="#FFEBEE" stroke="#FFCDD2" stroke-width="1" />
  <circle cx="655" cy="510" r="10" fill="#FF5252" />
  <text x="655" y="513" font-family="Arial" font-size="12" fill="white" text-anchor="middle" font-weight="bold">!</text>
  <text x="675" y="503" font-family="Arial" font-size="12" fill="#D32F2F" font-weight="bold">Sandbox Connectivity Issue</text>
  <text x="675" y="523" font-family="Arial" font-size="10" fill="#212121">Network latency affecting SBX system</text>
  
  <!-- Alert Item 2 -->
  <rect x="640" y="540" width="330" height="40" rx="5" ry="5" fill="#FFF8E1" stroke="#FFECB3" stroke-width="1" />
  <circle cx="655" cy="560" r="10" fill="#FFC107" />
  <text x="655" y="564" font-family="Arial" font-size="12" fill="white" text-anchor="middle" font-weight="bold">!</text>
  <text x="675" y="553" font-family="Arial" font-size="12" fill="#F57F17" font-weight="bold">GitHub Rate Limit Warning</text>
  <text x="675" y="573" font-family="Arial" font-size="10" fill="#212121">API rate limit at 75% of threshold</text>
</svg>