<?xml version="1.0" encoding="UTF-8"?>
<svg width="1000" height="700" xmlns="http://www.w3.org/2000/svg">
  <!-- Background and Title -->
  <rect width="1000" height="700" fill="#FAFAFA" />
  <text x="500" y="50" font-family="Arial" font-size="28" text-anchor="middle" font-weight="bold" fill="#212121">SAP-GitHub Integration Workflow</text>
  
  <!-- Swim Lanes -->
  <!-- Developer Lane -->
  <rect x="60" y="90" width="880" height="130" fill="#E3F2FD" stroke="#BBDEFB" stroke-width="2" rx="5" ry="5" />
  <text x="500" y="115" font-family="Arial" font-size="18" text-anchor="middle" font-weight="bold" fill="#1976D2">Developer</text>
  
  <!-- GitHub Lane -->
  <rect x="60" y="220" width="880" height="130" fill="#F3E5F5" stroke="#E1BEE7" stroke-width="2" rx="5" ry="5" />
  <text x="500" y="245" font-family="Arial" font-size="18" text-anchor="middle" font-weight="bold" fill="#7B1FA2">GitHub</text>
  
  <!-- CI/CD Lane -->
  <rect x="60" y="350" width="880" height="130" fill="#FFF8E1" stroke="#FFECB3" stroke-width="2" rx="5" ry="5" />
  <text x="500" y="375" font-family="Arial" font-size="18" text-anchor="middle" font-weight="bold" fill="#FF8F00">CI/CD Pipeline</text>
  
  <!-- SAP System Lane -->
  <rect x="60" y="480" width="880" height="130" fill="#E8EAF6" stroke="#C5CAE9" stroke-width="2" rx="5" ry="5" />
  <text x="500" y="505" font-family="Arial" font-size="18" text-anchor="middle" font-weight="bold" fill="#3949AB">SAP System</text>
  
  <!-- Workflow Steps -->
  <!-- Developer Steps -->
  <rect x="120" y="135" width="140" height="70" rx="12" ry="12" fill="#42A5F5" stroke="#1976D2" stroke-width="2" filter="drop-shadow(1px 1px 2px rgba(0,0,0,0.2))" />
  <text x="190" y="170" font-family="Arial" font-size="14" text-anchor="middle" fill="white" font-weight="bold">Develop Code</text>
  <text x="190" y="190" font-family="Arial" font-size="12" text-anchor="middle" fill="white">SAP Development</text>
  
  <rect x="740" y="135" width="140" height="70" rx="12" ry="12" fill="#42A5F5" stroke="#1976D2" stroke-width="2" filter="drop-shadow(1px 1px 2px rgba(0,0,0,0.2))" />
  <text x="810" y="170" font-family="Arial" font-size="14" text-anchor="middle" fill="white" font-weight="bold">Code Review</text>
  <text x="810" y="190" font-family="Arial" font-size="12" text-anchor="middle" fill="white">Feedback Loop</text>
  
  <!-- GitHub Steps -->
  <rect x="120" y="265" width="140" height="70" rx="12" ry="12" fill="#AB47BC" stroke="#7E57C2" stroke-width="2" filter="drop-shadow(1px 1px 2px rgba(0,0,0,0.2))" />
  <text x="190" y="295" font-family="Arial" font-size="14" text-anchor="middle" fill="white" font-weight="bold">Push to</text>
  <text x="190" y="315" font-family="Arial" font-size="14" text-anchor="middle" fill="white">Repository</text>
  
  <rect x="310" y="265" width="140" height="70" rx="12" ry="12" fill="#AB47BC" stroke="#7E57C2" stroke-width="2" filter="drop-shadow(1px 1px 2px rgba(0,0,0,0.2))" />
  <text x="380" y="295" font-family="Arial" font-size="14" text-anchor="middle" fill="white" font-weight="bold">Create</text>
  <text x="380" y="315" font-family="Arial" font-size="14" text-anchor="middle" fill="white">Pull Request</text>
  
  <rect x="500" y="265" width="140" height="70" rx="12" ry="12" fill="#AB47BC" stroke="#7E57C2" stroke-width="2" filter="drop-shadow(1px 1px 2px rgba(0,0,0,0.2))" />
  <text x="570" y="295" font-family="Arial" font-size="14" text-anchor="middle" fill="white" font-weight="bold">Review</text>
  <text x="570" y="315" font-family="Arial" font-size="14" text-anchor="middle" fill="white">Process</text>
  
  <rect x="740" y="265" width="140" height="70" rx="12" ry="12" fill="#AB47BC" stroke="#7E57C2" stroke-width="2" filter="drop-shadow(1px 1px 2px rgba(0,0,0,0.2))" />
  <text x="810" y="295" font-family="Arial" font-size="14" text-anchor="middle" fill="white" font-weight="bold">Merge to</text>
  <text x="810" y="315" font-family="Arial" font-size="14" text-anchor="middle" fill="white">Main Branch</text>
  
  <!-- CI/CD Steps -->
  <rect x="310" y="395" width="140" height="70" rx="12" ry="12" fill="#FFB74D" stroke="#FF9800" stroke-width="2" filter="drop-shadow(1px 1px 2px rgba(0,0,0,0.2))" />
  <text x="380" y="425" font-family="Arial" font-size="14" text-anchor="middle" fill="white" font-weight="bold">Automated</text>
  <text x="380" y="445" font-family="Arial" font-size="14" text-anchor="middle" fill="white">Tests</text>
  
  <rect x="500" y="395" width="140" height="70" rx="12" ry="12" fill="#FFB74D" stroke="#FF9800" stroke-width="2" filter="drop-shadow(1px 1px 2px rgba(0,0,0,0.2))" />
  <text x="570" y="425" font-family="Arial" font-size="14" text-anchor="middle" fill="white" font-weight="bold">Build</text>
  <text x="570" y="445" font-family="Arial" font-size="14" text-anchor="middle" fill="white">Process</text>
  
  <rect x="740" y="395" width="140" height="70" rx="12" ry="12" fill="#FFB74D" stroke="#FF9800" stroke-width="2" filter="drop-shadow(1px 1px 2px rgba(0,0,0,0.2))" />
  <text x="810" y="425" font-family="Arial" font-size="14" text-anchor="middle" fill="white" font-weight="bold">Deploy to</text>
  <text x="810" y="445" font-family="Arial" font-size="14" text-anchor="middle" fill="white">SAP</text>
  
  <!-- SAP System Steps -->
  <rect x="120" y="525" width="140" height="70" rx="12" ry="12" fill="#7986CB" stroke="#3949AB" stroke-width="2" filter="drop-shadow(1px 1px 2px rgba(0,0,0,0.2))" />
  <text x="190" y="555" font-family="Arial" font-size="14" text-anchor="middle" fill="white" font-weight="bold">Development</text>
  <text x="190" y="575" font-family="Arial" font-size="14" text-anchor="middle" fill="white">System</text>
  
  <rect x="310" y="525" width="140" height="70" rx="12" ry="12" fill="#7986CB" stroke="#3949AB" stroke-width="2" filter="drop-shadow(1px 1px 2px rgba(0,0,0,0.2))" />
  <text x="380" y="555" font-family="Arial" font-size="14" text-anchor="middle" fill="white" font-weight="bold">Quality</text>
  <text x="380" y="575" font-family="Arial" font-size="14" text-anchor="middle" fill="white">System</text>
  
  <rect x="500" y="525" width="140" height="70" rx="12" ry="12" fill="#7986CB" stroke="#3949AB" stroke-width="2" filter="drop-shadow(1px 1px 2px rgba(0,0,0,0.2))" />
  <text x="570" y="555" font-family="Arial" font-size="14" text-anchor="middle" fill="white" font-weight="bold">Transport</text>
  <text x="570" y="575" font-family="Arial" font-size="14" text-anchor="middle" fill="white">Management</text>
  
  <rect x="740" y="525" width="140" height="70" rx="12" ry="12" fill="#7986CB" stroke="#3949AB" stroke-width="2" filter="drop-shadow(1px 1px 2px rgba(0,0,0,0.2))" />
  <text x="810" y="555" font-family="Arial" font-size="14" text-anchor="middle" fill="white" font-weight="bold">Production</text>
  <text x="810" y="575" font-family="Arial" font-size="14" text-anchor="middle" fill="white">System</text>
  
  <!-- Workflow Arrows -->
  <!-- Developer Flow -->
  <line x1="190" y1="205" x2="190" y2="265" stroke="#9E9E9E" stroke-width="2.5" />
  <polygon points="190,265 185,255 195,255" fill="#9E9E9E" />
  
  <line x1="740" y1="300" x2="640" y2="300" stroke="#9E9E9E" stroke-width="2.5" />
  <polygon points="640,300 650,295 650,305" fill="#9E9E9E" />
  
  <line x1="810" y1="205" x2="810" y2="265" stroke="#9E9E9E" stroke-width="2.5" />
  <polygon points="810,265 805,255 815,255" fill="#9E9E9E" />
  
  <!-- GitHub Flow -->
  <line x1="260" y1="300" x2="310" y2="300" stroke="#9E9E9E" stroke-width="2.5" />
  <polygon points="310,300 300,295 300,305" fill="#9E9E9E" />
  
  <line x1="450" y1="300" x2="500" y2="300" stroke="#9E9E9E" stroke-width="2.5" />
  <polygon points="500,300 490,295 490,305" fill="#9E9E9E" />
  
  <line x1="570" y1="335" x2="570" y2="395" stroke="#9E9E9E" stroke-width="2.5" />
  <polygon points="570,395 565,385 575,385" fill="#9E9E9E" />
  
  <line x1="810" y1="335" x2="810" y2="395" stroke="#9E9E9E" stroke-width="2.5" />
  <polygon points="810,395 805,385 815,385" fill="#9E9E9E" />
  
  <!-- CI/CD Flow -->
  <line x1="450" y1="430" x2="500" y2="430" stroke="#9E9E9E" stroke-width="2.5" />
  <polygon points="500,430 490,425 490,435" fill="#9E9E9E" />
  
  <line x1="640" y1="430" x2="740" y2="430" stroke="#9E9E9E" stroke-width="2.5" />
  <polygon points="740,430 730,425 730,435" fill="#9E9E9E" />
  
  <line x1="810" y1="465" x2="810" y2="525" stroke="#9E9E9E" stroke-width="2.5" />
  <polygon points="810,525 805,515 815,515" fill="#9E9E9E" />
  
  <!-- SAP System Flow -->
  <line x1="260" y1="560" x2="310" y2="560" stroke="#9E9E9E" stroke-width="2.5" />
  <polygon points="310,560 300,555 300,565" fill="#9E9E9E" />
  
  <line x1="450" y1="560" x2="500" y2="560" stroke="#9E9E9E" stroke-width="2.5" />
  <polygon points="500,560 490,555 490,565" fill="#9E9E9E" />
  
  <line x1="640" y1="560" x2="740" y2="560" stroke="#9E9E9E" stroke-width="2.5" />
  <polygon points="740,560 730,555 730,565" fill="#9E9E9E" />
  
  <!-- Feedback Loop -->
  <path d="M740,170 C650,170 650,560 190,560" stroke="#9E9E9E" stroke-width="2.5" stroke-dasharray="6,6" fill="none" />
  <polygon points="190,560 200,555 200,565" fill="#9E9E9E" />
  
  <!-- Development System to GitHub connection -->
  <line x1="190" y1="525" x2="190" y2="335" stroke="#9E9E9E" stroke-width="2.5" />
  <polygon points="190,335 185,345 195,345" fill="#9E9E9E" />
  
  <!-- Legend -->
  <rect x="60" y="640" width="880" height="50" fill="white" stroke="#E0E0E0" stroke-width="2" rx="5" ry="5" />
  <text x="80" y="670" font-family="Arial" font-size="16" font-weight="bold" fill="#212121">Legend:</text>
  
  <rect x="160" y="655" width="24" height="24" fill="#42A5F5" stroke="#1976D2" stroke-width="2" rx="4" ry="4" />
  <text x="195" y="672" font-family="Arial" font-size="14" fill="#424242">Developer Tasks</text>
  
  <rect x="330" y="655" width="24" height="24" fill="#AB47BC" stroke="#7E57C2" stroke-width="2" rx="4" ry="4" />
  <text x="365" y="672" font-family="Arial" font-size="14" fill="#424242">GitHub Process</text>
  
  <rect x="500" y="655" width="24" height="24" fill="#FFB74D" stroke="#FF9800" stroke-width="2" rx="4" ry="4" />
  <text x="535" y="672" font-family="Arial" font-size="14" fill="#424242">CI/CD Pipeline</text>
  
  <rect x="670" y="655" width="24" height="24" fill="#7986CB" stroke="#3949AB" stroke-width="2" rx="4" ry="4" />
  <text x="705" y="672" font-family="Arial" font-size="14" fill="#424242">SAP Systems</text>
  
  <line x1="790" y1="667" x2="820" y2="667" stroke="#9E9E9E" stroke-width="2.5" />
  <polygon points="820,667 810,662 810,672" fill="#9E9E9E" />
  <text x="835" y="672" font-family="Arial" font-size="14" fill="#424242">Process Flow</text>
</svg> 