<?xml version="1.0" encoding="UTF-8"?>
<svg width="800" height="650" xmlns="http://www.w3.org/2000/svg">
  <!-- Background and Title -->
  <rect width="800" height="650" fill="#f8f9fa" />
  <text x="400" y="40" font-family="Arial" font-size="24" text-anchor="middle" font-weight="bold">SAP-GitHub Integration Workflow</text>
  
  <!-- Swim Lanes -->
  <!-- Developer Lane -->
  <rect x="50" y="80" width="700" height="120" fill="#E1F5FE" stroke="#81D4FA" stroke-width="1" />
  <text x="400" y="100" font-family="Arial" font-size="16" text-anchor="middle" font-weight="bold">Developer</text>
  
  <!-- GitHub Lane -->
  <rect x="50" y="200" width="700" height="120" fill="#E8F5E9" stroke="#A5D6A7" stroke-width="1" />
  <text x="400" y="220" font-family="Arial" font-size="16" text-anchor="middle" font-weight="bold">GitHub</text>
  
  <!-- CI/CD Lane -->
  <rect x="50" y="320" width="700" height="120" fill="#FFF3E0" stroke="#FFCC80" stroke-width="1" />
  <text x="400" y="340" font-family="Arial" font-size="16" text-anchor="middle" font-weight="bold">CI/CD Pipeline</text>
  
  <!-- SAP System Lane -->
  <rect x="50" y="440" width="700" height="120" fill="#E8EAF6" stroke="#9FA8DA" stroke-width="1" />
  <text x="400" y="460" font-family="Arial" font-size="16" text-anchor="middle" font-weight="bold">SAP System</text>
  
  <!-- Workflow Steps -->
  <!-- Developer Steps -->
  <rect x="100" y="120" width="120" height="60" rx="10" ry="10" fill="#29B6F6" stroke="#0288D1" stroke-width="1" />
  <text x="160" y="150" font-family="Arial" font-size="12" text-anchor="middle" fill="white">Develop Code</text>
  <text x="160" y="170" font-family="Arial" font-size="10" text-anchor="middle" fill="white">SAP Development</text>
  
  <rect x="580" y="120" width="120" height="60" rx="10" ry="10" fill="#29B6F6" stroke="#0288D1" stroke-width="1" />
  <text x="640" y="150" font-family="Arial" font-size="12" text-anchor="middle" fill="white">Code Review</text>
  <text x="640" y="170" font-family="Arial" font-size="10" text-anchor="middle" fill="white">Feedback Loop</text>
  
  <!-- GitHub Steps -->
  <rect x="100" y="240" width="120" height="60" rx="10" ry="10" fill="#66BB6A" stroke="#388E3C" stroke-width="1" />
  <text x="160" y="265" font-family="Arial" font-size="12" text-anchor="middle" fill="white">Push to</text>
  <text x="160" y="280" font-family="Arial" font-size="12" text-anchor="middle" fill="white">Repository</text>
  
  <rect x="260" y="240" width="120" height="60" rx="10" ry="10" fill="#66BB6A" stroke="#388E3C" stroke-width="1" />
  <text x="320" y="265" font-family="Arial" font-size="12" text-anchor="middle" fill="white">Create</text>
  <text x="320" y="280" font-family="Arial" font-size="12" text-anchor="middle" fill="white">Pull Request</text>
  
  <rect x="420" y="240" width="120" height="60" rx="10" ry="10" fill="#66BB6A" stroke="#388E3C" stroke-width="1" />
  <text x="480" y="265" font-family="Arial" font-size="12" text-anchor="middle" fill="white">Review</text>
  <text x="480" y="280" font-family="Arial" font-size="12" text-anchor="middle" fill="white">Process</text>
  
  <rect x="580" y="240" width="120" height="60" rx="10" ry="10" fill="#66BB6A" stroke="#388E3C" stroke-width="1" />
  <text x="640" y="265" font-family="Arial" font-size="12" text-anchor="middle" fill="white">Merge to</text>
  <text x="640" y="280" font-family="Arial" font-size="12" text-anchor="middle" fill="white">Main Branch</text>
  
  <!-- CI/CD Steps -->
  <rect x="260" y="360" width="120" height="60" rx="10" ry="10" fill="#FFA726" stroke="#F57C00" stroke-width="1" />
  <text x="320" y="385" font-family="Arial" font-size="12" text-anchor="middle" fill="white">Automated</text>
  <text x="320" y="400" font-family="Arial" font-size="12" text-anchor="middle" fill="white">Tests</text>
  
  <rect x="420" y="360" width="120" height="60" rx="10" ry="10" fill="#FFA726" stroke="#F57C00" stroke-width="1" />
  <text x="480" y="385" font-family="Arial" font-size="12" text-anchor="middle" fill="white">Build</text>
  <text x="480" y="400" font-family="Arial" font-size="12" text-anchor="middle" fill="white">Process</text>
  
  <rect x="580" y="360" width="120" height="60" rx="10" ry="10" fill="#FFA726" stroke="#F57C00" stroke-width="1" />
  <text x="640" y="385" font-family="Arial" font-size="12" text-anchor="middle" fill="white">Deploy to</text>
  <text x="640" y="400" font-family="Arial" font-size="12" text-anchor="middle" fill="white">SAP</text>
  
  <!-- SAP System Steps -->
  <rect x="100" y="480" width="120" height="60" rx="10" ry="10" fill="#7986CB" stroke="#3949AB" stroke-width="1" />
  <text x="160" y="505" font-family="Arial" font-size="12" text-anchor="middle" fill="white">Development</text>
  <text x="160" y="520" font-family="Arial" font-size="12" text-anchor="middle" fill="white">System</text>
  
  <rect x="260" y="480" width="120" height="60" rx="10" ry="10" fill="#7986CB" stroke="#3949AB" stroke-width="1" />
  <text x="320" y="505" font-family="Arial" font-size="12" text-anchor="middle" fill="white">Quality</text>
  <text x="320" y="520" font-family="Arial" font-size="12" text-anchor="middle" fill="white">System</text>
  
  <rect x="420" y="480" width="120" height="60" rx="10" ry="10" fill="#7986CB" stroke="#3949AB" stroke-width="1" />
  <text x="480" y="505" font-family="Arial" font-size="12" text-anchor="middle" fill="white">Transport</text>
  <text x="480" y="520" font-family="Arial" font-size="12" text-anchor="middle" fill="white">Management</text>
  
  <rect x="580" y="480" width="120" height="60" rx="10" ry="10" fill="#7986CB" stroke="#3949AB" stroke-width="1" />
  <text x="640" y="505" font-family="Arial" font-size="12" text-anchor="middle" fill="white">Production</text>
  <text x="640" y="520" font-family="Arial" font-size="12" text-anchor="middle" fill="white">System</text>
  
  <!-- Workflow Arrows -->
  <!-- Developer Flow -->
  <line x1="160" y1="180" x2="160" y2="240" stroke="#555" stroke-width="2" />
  <polygon points="160,240 155,230 165,230" fill="#555" />
  
  <line x1="580" y1="270" x2="540" y2="270" stroke="#555" stroke-width="2" />
  <polygon points="540,270 550,265 550,275" fill="#555" />
  
  <line x1="640" y1="180" x2="640" y2="240" stroke="#555" stroke-width="2" />
  <polygon points="640,240 635,230 645,230" fill="#555" />
  
  <!-- GitHub Flow -->
  <line x1="220" y1="270" x2="260" y2="270" stroke="#555" stroke-width="2" />
  <polygon points="260,270 250,265 250,275" fill="#555" />
  
  <line x1="380" y1="270" x2="420" y2="270" stroke="#555" stroke-width="2" />
  <polygon points="420,270 410,265 410,275" fill="#555" />
  
  <line x1="480" y1="300" x2="480" y2="360" stroke="#555" stroke-width="2" />
  <polygon points="480,360 475,350 485,350" fill="#555" />
  
  <line x1="640" y1="300" x2="640" y2="360" stroke="#555" stroke-width="2" />
  <polygon points="640,360 635,350 645,350" fill="#555" />
  
  <!-- CI/CD Flow -->
  <line x1="380" y1="390" x2="420" y2="390" stroke="#555" stroke-width="2" />
  <polygon points="420,390 410,385 410,395" fill="#555" />
  
  <line x1="540" y1="390" x2="580" y2="390" stroke="#555" stroke-width="2" />
  <polygon points="580,390 570,385 570,395" fill="#555" />
  
  <line x1="640" y1="420" x2="640" y2="480" stroke="#555" stroke-width="2" />
  <polygon points="640,480 635,470 645,470" fill="#555" />
  
  <!-- SAP System Flow -->
  <line x1="220" y1="510" x2="260" y2="510" stroke="#555" stroke-width="2" />
  <polygon points="260,510 250,505 250,515" fill="#555" />
  
  <line x1="380" y1="510" x2="420" y2="510" stroke="#555" stroke-width="2" />
  <polygon points="420,510 410,505 410,515" fill="#555" />
  
  <line x1="540" y1="510" x2="580" y2="510" stroke="#555" stroke-width="2" />
  <polygon points="580,510 570,505 570,515" fill="#555" />
  
  <!-- Feedback Loop -->
  <path d="M580,150 C520,150 520,510 160,510" stroke="#555" stroke-width="2" stroke-dasharray="5,5" fill="none" />
  <polygon points="160,510 170,505 170,515" fill="#555" />
  
  <!-- Development System to GitHub connection -->
  <line x1="160" y1="480" x2="160" y2="300" stroke="#555" stroke-width="2" />
  <polygon points="160,300 155,310 165,310" fill="#555" />
  
  <!-- Legend -->
  <rect x="50" y="600" width="700" height="40" fill="white" stroke="#ccc" stroke-width="1" />
  <text x="60" y="625" font-family="Arial" font-size="14" font-weight="bold">Legend:</text>
  
  <rect x="130" y="610" width="20" height="20" fill="#29B6F6" stroke="#0288D1" stroke-width="1" />
  <text x="155" y="625" font-family="Arial" font-size="12">Developer Tasks</text>
  
  <rect x="260" y="610" width="20" height="20" fill="#66BB6A" stroke="#388E3C" stroke-width="1" />
  <text x="285" y="625" font-family="Arial" font-size="12">GitHub Process</text>
  
  <rect x="390" y="610" width="20" height="20" fill="#FFA726" stroke="#F57C00" stroke-width="1" />
  <text x="415" y="625" font-family="Arial" font-size="12">CI/CD Pipeline</text>
  
  <rect x="520" y="610" width="20" height="20" fill="#7986CB" stroke="#3949AB" stroke-width="1" />
  <text x="545" y="625" font-family="Arial" font-size="12">SAP Systems</text>
  
  <line x1="620" y1="620" x2="650" y2="620" stroke="#555" stroke-width="2" />
  <polygon points="650,620 640,615 640,625" fill="#555" />
  <text x="665" y="625" font-family="Arial" font-size="12">Process Flow</text>
</svg> 